<?xml version="1.0" encoding="utf-8"?>
<!-- Generator: Adobe Illustrator 18.0.0, SVG Export Plug-In . SVG Version: 6.00 Build 0)  -->
<!DOCTYPE svg PUBLIC "-//W3C//DTD SVG 1.1//EN" "http://www.w3.org/Graphics/SVG/1.1/DTD/svg11.dtd">
<svg version="1.1" id="Layer_1" xmlns="http://www.w3.org/2000/svg" xmlns:xlink="http://www.w3.org/1999/xlink" x="0px" y="0px"
	 viewBox="0 0 550 400" enable-background="new 0 0 550 400" xml:space="preserve">
<g transform="matrix( 1, 0, 0, 1, 0,0) ">
	<g>
		<g id="Layer0_0_FILL">
			<path fill="#D1D2D4" d="M290.8,186.3l0.1,3.9l6-4.1l-0.1-2.1l-6,1.9V186.3 M296.8,165.8l-6-1.1v0.2v21.1h0l6-1.9L296.8,165.8
				 M296.8,163.5l-6-3.5v0.2v4.4l6,1.1V163.5 M247.2,186.4L247.2,186.4l-0.1,3.7l0.1,0.1v0.1l18.5-0.1l7-0.1h18.1l0.1-0.1l-0.1-3.9
				L247.2,186.4 M247.1,186.2L247.1,186.2l0.1,0.3l43.6-0.2l0-0.3v-21.1l-43.7,0.1L247.1,186.2 M247.1,164.9l-0.1-0.1l-0.3,0.1
				L247.1,164.9 M240.6,164.4l-0.1,2.1l6.2-1.6l0.3-0.1h0.1l-0.1-4.2l0.1,4.2v0.1l43.7-0.1v-0.2v-4.4l-43.8,0.1L240.6,164.4
				 M240.5,166.5l0.1,18.4l6.5,1.3l-0.1-21.3l-0.4-0.1L240.5,166.5 M240.6,184.9v1.8l6.5,3.4v-3.8v-0.2L240.6,184.9z"/>
			<path fill="#A34B22" d="M272.7,190.3l-7,0.1v0.1l0.2,56.7c2.6,2.1,4.9,2.1,7,0l-0.3-56.7V190.3z"/>
		</g>
	</g>
	<g>
		<path id="Layer0_0_1_STROKES" fill="none" stroke="#000000" stroke-linecap="round" stroke-linejoin="round" d="M240.6,184.9v1.8
			l6.5,3.4v-3.8v-0.2L240.6,184.9l-0.1-18.4l0.1-2.1l6.4-4.1l43.8-0.1V160l0-0.8 M247.1,164.9v-0.1h-0.1l-0.3,0.1L247.1,164.9
			l43.7-0.1v-0.2v-4.4 M247.1,164.8l-0.1-4.2 M247.2,186.3L247.2,186.3l-0.1-21.3 M247.1,186.4L247.1,186.4 M247.1,190.1l0,0.2
			l0.1-0.1L247.1,190.1z M247.3,190.4h-0.1 M272.7,190.3l-7,0.1 M265.8,190.4l0.2,56.7c2.6,2.1,4.9,2.1,7,0l-0.3-56.7 M272.7,190.3
			h18.1l0.1-0.1l-0.1-3.9l-43.6,0.2 M265.8,190.3l-18.5,0.1 M290.8,160l6,3.5v2.3l0.4,0.1 M290.8,164.6l6,1.1l0,18.3l0.3-0.1
			 M290.9,190.2L290.9,190.2l0.6,0.1 M290.8,186.3l0-0.3v-21.1 M290.8,185.9l6-1.9l0.1,2.1l-6,4.1 M290.9,190.3L290.9,190.3
			 M246.7,164.9l-6.2,1.6"/>
	</g>
</g>
</svg>
