<?xml version="1.0" encoding="utf-8"?>
<!-- Generator: Adobe Illustrator 18.0.0, SVG Export Plug-In . SVG Version: 6.00 Build 0)  -->
<!DOCTYPE svg PUBLIC "-//W3C//DTD SVG 1.1//EN" "http://www.w3.org/Graphics/SVG/1.1/DTD/svg11.dtd">
<svg version="1.1" id="Layer_1" xmlns="http://www.w3.org/2000/svg" xmlns:xlink="http://www.w3.org/1999/xlink" x="0px" y="0px"
	 viewBox="0 0 550 400" enable-background="new 0 0 550 400" xml:space="preserve">
<g transform="matrix( 1, 0, 0, 1, 0,0) ">
	<g>
		<g id="Layer1_0_FILL">
			<path fill="#D70F11" d="M325.4,262.4l10.1,6.5c-1.3-1.4-2.4-3.1-3.4-5.1c-0.3-0.6-0.6-1.3-0.9-1.9c0.3,0.6,0.6,1.2,0.9,1.9
				c1,2,2.1,3.7,3.4,5.1c0.2,0.2,0.3,0.3,0.5,0.5c0,0.1,0.1,0.1,0.2,0.3c2.8,2.8,6.3,4.4,10.3,4.6c-2.4-2.9-4.6-5.7-6.8-8.5
				c-1.6-2.2-3.2-4.4-4.8-6.5c-0.5-0.7-1.1-1.5-1.6-2.3c-21.8-31-31-58-27.6-80.8l0.3-2.1l-3.6-2v-0.1l1.7-4.8l0-0.1l-4.8-2.1
				l0.2-2.3l-4.9-5.3l2.5-6.6v-4.3l3.3-2.4l0-0.1l0-0.9l9.9-0.6v-0.2h0.5c0.7-1.3,1.5-2.6,2.6-3.8c1.9-2.1,4.4-3.9,7.4-5.4l0.4-3.9
				h-0.4l-4,0.4l-10.4,3.3l-0.2-0.4l-3-0.3l-24.7-0.1l-2.3,0.3l-0.1-0.1l-3.8,3.6c0,0.9-0.1,1.7-0.2,2.5l0,0.1
				c-0.5,4.5-1.5,9-3,13.4l-0.6,3.5c-1.4,3-2.8,5.9-4.3,8.7l-1.2,2.3c-0.6,1.2-1.2,2.3-1.8,3.4l-2.9,4.7c-2.9,4.6-5.9,8.9-9.1,12.8
				l0.6,0.4c11.3,6.5,20.3,18.9,27.2,37.3l0.2,4.3c7.5,15.9,17.8,22.9,30.7,20.9c0.1-0.1,0.1-0.1,0.1,0l0.2,0.1l4.9,2.7l-0.2,6.8
				l2.8,3.5L325.4,262.4 M288.2,142.6l-4.6-1.3l-5.8,13.8l5.8-13.8L288.2,142.6l-7.2,57.7L288.2,142.6 M307.2,243.3
				c-8.1-14.2-12.6-28.3-13.6-42.2c-0.1-2-0.2-4-0.2-6c0,2,0.1,4,0.2,6C294.6,215,299.1,229.1,307.2,243.3 M292.6,194.5l0.8,21.6
				L292.6,194.5z"/>
		</g>
	</g>
	<g>
		<path id="Layer1_0_1_STROKES" fill="none" stroke="#000000" stroke-linecap="round" stroke-linejoin="round" d="M310.1,142.3v0.2
			l-9.9,0.6l0,0.9l0,0.1l-3.3,2.4v4.3l-2.5,6.6l4.9,5.3l-0.2,2.3l4.8,2.1l0,0.1l-1.7,4.8v0.1l3.6,2l-0.3,2.1
			c-3.4,22.9,5.8,49.8,27.6,80.8c0.5,0.8,1.1,1.6,1.6,2.3c1.5,2.1,3.1,4.3,4.8,6.5c2.1,2.8,4.4,5.6,6.8,8.5c-4-0.2-7.5-1.8-10.3-4.6
			c-0.1-0.1-0.2-0.2-0.2-0.3c-0.2-0.2-0.3-0.3-0.5-0.5l-10.1-6.5l-9.9,0.8l-2.8-3.5l0.2-6.8l-4.9-2.7l-0.2-0.1c0,0-0.1,0-0.1,0
			c-12.9,2-23.2-5-30.7-20.9l-0.2-4.3c-6.9-18.4-15.9-30.8-27.2-37.3 M249.1,187.3c3.2-3.9,6.2-8.1,9.1-12.8l2.9-4.7
			c0.6-1.1,1.2-2.2,1.8-3.4l1.2-2.3c1.5-2.8,2.9-5.7,4.3-8.7l0.6-3.5c1.4-4.5,2.4-8.9,3-13.4l0-0.1c0.1-0.8,0.2-1.6,0.2-2.5l3.8-3.6
			l0.1,0.1l2.3-0.3l24.7,0.1l3,0.3 M306.2,133l10.4-3.3l4-0.4h0.4l-0.4,3.9c-3.1,1.5-5.5,3.3-7.4,5.4c-1.1,1.2-1.9,2.4-2.6,3.8
			 M335.5,268.9c-1.3-1.4-2.4-3.1-3.4-5.1c-0.3-0.6-0.6-1.3-0.9-1.9 M281,200.3l7.2-57.7l-4.6-1.3l-5.8,13.8 M307.2,243.3
			c-8.1-14.2-12.6-28.3-13.6-42.2c-0.1-2-0.2-4-0.2-6 M292.6,194.5l0.8,21.6"/>
	</g>
</g>
<g transform="matrix( 1, 0, 0, 1, 0,0) ">
	<g>
		<g id="Layer0_0_MEMBER_0_FILL">
			<path fill="#333132" d="M303,177l-2,2l2.6,4.4h0l3.9-1.5L303,177 M334.8,172.5c0-0.1,0-0.2,0-0.3s0-0.2,0-0.3
				c0-0.9,0-1.8-0.1-2.8c1.9-8.8-1.7-14.3-10.9-16.6c-0.4-0.1-0.7-0.2-1.1-0.3l-7.1-1.5l-0.1,0.1l-1.4,1.1l-1.1,0.7l2.2,1.6h0
				l12,8.8l2.1,8.8l-2.1-8.8l-12-8.8l-0.6,0.8l0.6-0.8l-2.2-1.6l-0.9,0.5l-1.6-0.5l-9.9-3.4v-0.3l-7.3-0.3l-1,1.4l-0.1,0.1l-6.1,8.3
				l-5.9,7.9l0.7,0.6l0.1,0.1l4.3,3.2l1.1-0.9l11.8-9.9l-11.8,9.9l1,5.1l5.7,1.8l-5.7-1.8l-1-5.1l-1.1,0.9l-4.3-3.2l-0.3,4.1
				l3.3,2.7l3.5,6.1l7.2-0.4l-1.8-1.6l-0.7-0.1l0.7,0.1l9.4-12.5l-9.4,12.5l1.8,1.6l1.6,1.6l4.6-2.3h0.1l2-2l5.3-5.4l4.6-3.3
				l-2.1-4.2l-0.1-3.7L308,160h0l-0.3-6.4l-4.3-0.7l-6.3-2.8l6.3,2.8l4.3,0.7l0.3,6.4h0l2.6,0.5l0.1,3.7l2.1,4.2l5.3,1.3l0.1-0.1
				l0.5-0.6l-0.3-4.8l5.4,6.9l-3.6,3l-2.4,3.3l-0.9,0.9l-1.2,1.2l0.6,5.1l7.1,3.7l-2.4-4.6l5.4,1.2
				C332,183.7,334.8,179.6,334.8,172.5z"/>
			<path fill="#272B2C" d="M312.9,168.4l-4.6,3.3L303,177l4.5,4.9l0.5-0.2l7.5-8.8l-7.5,8.8l9-3.4l0.9-0.9l2.4-3.3l3.6-3l-5.4-6.9
				l0.3,4.8l-0.5,0.6l-0.1,0.1L312.9,168.4 M194.6,294.5c0,0.1,0,0.2,0,0.3c0,7.6,1.8,14.1,5.3,19.4l8.9,4.1l0.1-0.1l5.4-7.3
				c-5.1-5.3-6.7-10.9-4.9-16.7c-2.6,0.4-5.2,0.4-8,0.2c2.8,0.2,5.4,0.2,8-0.2c0.1,0,0.1,0,0.2,0c3.1-0.5,6.1-1.5,8.9-2.9
				c-4.8-3.1-10.7-6-17.6-8.6l-6.4,2.4l0.4,4.5c-0.2,1.7-0.2,3.3-0.3,4.8C194.6,294.4,194.6,294.4,194.6,294.5 M267.4,282H263
				C265.2,282.3,266.7,282.3,267.4,282 M275.5,247.6c-0.3,1.1-0.6,2.2-0.8,3.3c-0.9,6.8,2.2,12.6,9.5,17.4
				c-7.2-4.8-10.4-10.6-9.5-17.4C275,249.8,275.2,248.7,275.5,247.6l-0.3-0.3l-6.5,5.2l-9.7,8l-8.5-7.1l-2.5-5.3l-6.2-0.3l0.7,1.2
				l9.8,26.3l6.4,6.7h1c-0.3-0.3-0.6-0.7-0.9-1c-1.3-1.6-2.5-3.2-3.6-4.8c-0.1-0.1-0.1-0.2-0.2-0.3c0-0.1-0.1-0.2-0.1-0.2
				c-0.9-1.5-1.7-2.9-2.4-4.3c-0.1-0.2-0.2-0.5-0.3-0.7c-1.3-2.9-2.1-5.8-2.3-8.5c0.2,2.8,1,5.6,2.3,8.5c0.1,0.2,0.2,0.4,0.3,0.7
				c0.6,1.4,1.4,2.8,2.4,4.3c0,0,0.1,0.1,0.1,0.2c0.1,0.1,0.1,0.2,0.2,0.3c1,1.6,2.2,3.1,3.6,4.8c0.3,0.4,0.5,0.7,0.9,1h3.3h4.4
				c0.6-0.2,0.8-0.7,0.4-1.3c-1.8-1.2-3.4-2.4-4.8-3.7c-1.3-1.2-2.4-2.5-3.4-3.9c-0.9-1.4-1.7-2.8-2.3-4.2c-1.2-2.9-1.6-6.1-1.3-9.4
				c-0.3,3.3,0.1,6.5,1.3,9.4c0.6,1.4,1.3,2.8,2.3,4.2c1,1.4,2.1,2.7,3.4,3.9c1.4,1.3,2.9,2.5,4.8,3.7c0.3,0.2,0.7,0.5,1,0.7h0
				c0.2,0.1,0.4,0.3,0.8,0.6l3.6-3.6l17.1-2.7l4.5-12l-1.7-16.2c-0.5,4.4-1.9,7.1-4,8.3c-0.3,0.1-0.6,0.3-0.9,0.4
				c-0.3,0.1-0.7,0.2-1,0.2c-0.2,0-0.3,0.1-0.5,0.1c-0.1,0-0.3,0-0.4,0c-0.4,0-0.9,0-1.4-0.1c-0.1,0-0.3-0.1-0.4-0.1L275.5,247.6
				 M161.3,275.8l-3.4,3.6l-9.5,26.4l-6.4,4.2l0.3,8.7c-4.7,21-3.5,32.8,3.6,35.4l10.9,1.5l5.6-12.8l-2-17.5l5.3-8l-0.5-9.1
				l13.4-18.1C171.7,287.6,166,282.8,161.3,275.8 M272.3,93.8l0.2,1.8c2.2,1.2,4.5,1.2,6.8-0.1v-3.9c-1.7,0.9-3.5,1.5-5.3,1.9
				l0.1,0.5l-0.1-0.5C273.4,93.7,272.8,93.8,272.3,93.8 M260.5,92.4c-0.1,0-0.1-0.1-0.3-0.1l-2,1.3l1.4,2.6l5.7,0.5l3.4-1.8l3.7,0.8
				l-0.2-1.8C268.7,94.3,264.8,93.8,260.5,92.4z"/>
			<path fill="#31536C" d="M258.2,185.8c-1.1,0.3-2.1,0.6-3,0.8l7.6,18.3l-5.9,10.8l-0.1,0.2l-24.7,1.1l15.8,31.2l2.5,5.3l8.5,7.1
				l9.7-8c0.3-0.6,0.6-1.3,0.8-1.9c0.1-0.7,0.1-1.4,0.1-2.1c-0.4-4.6-4.5-10.4-12.3-17.6c7.8,7.2,11.9,13,12.3,17.6
				c0,0.7,0,1.4-0.1,2.1c-0.2,0.7-0.4,1.3-0.8,1.9l6.5-5.2l0.3,0.3l9,8.7c0.1,0,0.2,0.1,0.4,0.1c0.5,0.1,0.9,0.1,1.4,0.1
				c0.1,0,0.3,0,0.4,0c0.2,0,0.3,0,0.5-0.1c0.3,0,0.7-0.1,1-0.2c0.3-0.1,0.6-0.2,0.9-0.4c2.2-1.2,3.5-3.9,4-8.3l-0.1-0.9l-7,3.9
				l0.4,0.6l-0.4-0.6l-3.9-6.7l-0.1-0.1v-0.1l-10.3-17.4l10.3,17.4l0.5-0.3c-1.1-8.8-2.8-16.8-5.1-24.2l-1.8-5.2
				c-0.5-1.2-1-2.4-1.5-3.6l-0.9-2.3c-1-2.3-2.1-4.5-3.3-6.6c-0.1-0.1-0.2-0.3-0.3-0.4c0-0.1-0.1-0.1-0.1-0.1c0,0,0-0.1,0-0.1
				c0,0,0-0.1,0-0.1c-0.8-1.5-1.7-2.9-2.6-4.2L258.2,185.8z"/>
			<path fill="#D70F11" d="M256.6,183.8v0.1l1.6,1.9l8.7,10.6c-2.5-3.9-5.4-7.5-8.5-10.8v-0.1C257.8,184.9,257.3,184.3,256.6,183.8
				 M282.3,122.8l0.5,0.3c0-0.1-0.1-0.1-0.1-0.2c-0.1-0.1-0.1-0.1-0.1-0.1L282.3,122.8 M283.1,95.4v0.2l-0.5,6.7l2.6,5.4
				c0.8,2.9,0.4,4.9-1.1,5.9l0.6,0.6l-0.6-0.6l-2.4-2.8l-3,5.3l-3.3,0.6l-0.5,0.1l0.5-0.1l1.8-3.4l-0.4-5.2h-0.8l-0.6,3.6l-3,4.6
				l-8.9,1l2.4,11.4l0.6,0.7l6.3-5.8l8.1-1.5l1.3,0.7l0.2,0c0,0,0.1,0.1,0.1,0.1c0,0,0.1,0.1,0.1,0.2l6.3,3.3l12.7-11.7l2.5-2.3
				l-5.2-10.9l-7.9-7.5L283.1,95.4 M232.1,87.7c-0.2-0.3-0.4-0.7-0.6-1c-1.1,12.2,0.3,23.2,3.9,33.1l0.9,0.2l-0.9-0.2
				c0,0,0.1,0.1,0.1,0.1c0.1,0.1,0.1,0.2,0.1,0.4l3.9,3.8c0.1-0.6,0.2-1.2,0.3-1.8c-1.2-4.6-1.8-9.1-1.9-13.5c0-0.2,0-0.3,0-0.5
				c-0.1-3.2,0.1-6.3,0.6-9.5l0.1-4.3l-1.3-1.5C235.4,91.8,233.7,90,232.1,87.7 M195.6,85.8l-2.5,7.8v15.6l0.3,2.8v0l3.9,32.3
				c0.2,2.4,0.5,4.7,0.9,7c1,7,2.6,13.9,4.7,20.6l3.6-1.8l3.4-2.8l-3.4,2.8l4.9-2.4l-2.9-10.3l4.7-6.9l-4.1-12.9l4.1,12.9l-4.7,6.9
				l2.9,10.3l0.1-0.1v-0.3l6.5-66.5l0.4-0.2l-0.6-1l-3.3-15.5L195.6,85.8 M195.7,85.3l-0.1,0.5l18.8-1.5l3.3,15.5l0.6,1l9.8,17.3
				l0.1,0.1l3.8,0.8l3.6,0.8c-3.7-9.9-5-20.9-3.9-33.1c0-0.1,0-0.2,0-0.3c0-0.4,0.1-0.9,0.1-1.3c0-0.2,0-0.5,0.1-0.8l-8.4-0.1
				l-12.8-4.2L195.7,85.3 M195.6,85.8l0.1-0.5l-0.8,0.3h-3.9l-3.9,13.8l2,12.5c0.2,0.2,0.4,0.4,0.4,0.7c0.1,1.4,0.2,2.9,0.3,4.3
				c0.9,12.9,2.2,24.7,3.8,35.2c0,0,0,0.1,0.1,0.1v0c3.2,21.4,7.8,37.7,13.7,48.9c0,0.1,0.1,0.1,0.1,0.1c0,0.1,0.1,0.1,0.1,0.3
				l2.4-1.3l-2.3,1.4c0.1,0.4,0.2,0.8,0.3,1.1c4.4,19.7,12.7,38,24.9,55.1c-12.2-17.1-20.5-35.4-24.9-55.1c-0.1-0.4-0.2-0.8-0.3-1.1
				l-0.1-0.1c0-0.1-0.1-0.2-0.1-0.3c0,0-0.1-0.1-0.1-0.1c-5.9-11.2-10.5-27.5-13.7-48.9v0c0,0-0.1-0.1-0.1-0.1
				c-1.6-10.5-2.8-22.2-3.8-35.2c-0.1-1.4-0.2-2.9-0.3-4.3c0-0.3-0.2-0.5-0.4-0.7l-2-12.5l-4.8,18l-6.9,37.8h0.1l0.3,0v0.1
				l-2.1,19.8l-9,13.5l-2.7,18l-0.1,0.4l-0.3-0.1l-7.2,8.3l0.9,0.8c-3.5,5.2-5,10.6-4.6,16.1l0.7-0.8l-0.7,0.8
				c0.1,0.9,0.2,1.8,0.4,2.7c0.6,3.1,1.8,6.2,3.6,9.3c-1.8-3.1-3-6.3-3.6-9.3c-0.2-0.9-0.3-1.8-0.4-2.7l-2.1,2.7c0,0.1,0,0.2,0,0.3
				c0.3,6.5,1.4,12,3.4,16.6l0.1,0.1c0.9,2.1,1.9,3.9,3.2,5.6c-1.3-1.7-2.3-3.5-3.2-5.6l-0.1-0.1l-0.6,0.3c2.5,9.7,5.8,17.7,9.9,24
				l0.1,0c4.7,7.1,10.4,11.8,17.3,14.3c2.5,0.9,5.2,1.5,8.1,1.8l6.1-6.1l7.8-3.3l0.3,0.3c6.9,2.6,12.8,5.5,17.6,8.6
				c4.8,3.1,8.5,6.4,11.1,10l-0.1,0.7h0.1l-1,9.2c1.8-2.7,3.3-5.5,4.6-8.5c0,0,0-0.1,0.1-0.1c5.1-12.4,5.2-27.4,0.3-44.8
				c4.9,17.4,4.8,32.3-0.3,44.8c0,0-0.1,0.1-0.1,0.1c-1.2,3-2.8,5.8-4.6,8.5v0.1l-0.2,0.2v0.1c-0.4,0.6-0.8,1.1-1.2,1.7
				c-1.2,1.6-2.4,3.1-3.9,4.6c2.3-0.7,4.6-1.6,6.8-2.5c0.1-0.1,0.2-0.1,0.3-0.1c12.4-5.3,21.9-13.2,28.4-23.9l-0.8-0.5l-5.8-15.4
				l-9.8-26.3l-0.7-1.2L222.6,213l-0.8-1.4c-0.6-0.9-1.3-1.9-1.9-2.8l-1.8,0.4l1.8-0.4c-0.4-0.7-0.9-1.4-1.3-2.1
				c0,0-0.1-0.1-0.1-0.1c-1.8-2.8-3.4-5.7-4.9-8.5c-3.1-5.8-5.8-11.8-8.1-17.9c-0.9-2.4-1.7-4.9-2.5-7.3l-1.1,0.9l1.1-0.9
				c-0.1-0.3-0.2-0.6-0.3-0.9l-1.2,0.6l1.2-0.6c-2.1-6.7-3.6-13.6-4.7-20.6c-0.4-2.3-0.7-4.7-0.9-7l-3.9-32.3v0l-0.3-2.8V93.7
				L195.6,85.8 M193.4,244.6l9-10.8l4.5-0.3l-4.5,0.3L193.4,244.6 M205.4,237.6c-0.1,15.4-4,27.6-11.7,36.6
				C201.3,265.3,205.2,253.1,205.4,237.6 M181.4,148.3l-13.2,70.2L181.4,148.3 M189.1,186.6l-5.4,76.5L189.1,186.6z"/>
			<path fill="#433938" d="M256.1,178.5l-2.5-0.6l-1.6-0.3c-2.4,0.1-4.8,0-7.1-0.1v0.8l-0.2,9.5c2.5-0.2,5.1-0.4,7.8-0.8
				c0.9-0.2,1.8-0.3,2.8-0.4c0.9-0.2,1.9-0.4,3-0.8l-1.6-1.9v-0.1c-0.1-0.1-0.3-0.2-0.4-0.3c-0.1-0.1-0.1-0.2-0.2-0.2
				c-0.1-0.1-0.2-0.2-0.3-0.3l-0.1-0.2L256.1,178.5 M252.5,187c-2.6,0.3-5.2,0.6-7.8,0.8l-0.1,4.9l-3.3,0.2l-5,21.6l6.3-1.1
				l10.2,0.9l7.2-10.2L252.5,187 M240.9,128.2c0.5,2.1,0,4.1-1.4,5.9c-2.8,2.1-6.1,2.7-9.9,1.6l-0.1,0.4l-3.8,6.8l1.4,15.1v0.3
				l0.1,1l-0.1-1v-0.3l-0.8,0.5l-0.5,1.8c0.2,0.1,0.5,0.3,0.7,0.5l0.1-1.1l-0.1,1.1c0.8,0.7,1.4,1.8,1.7,3.1c0.1,0.3,0.1,0.6,0.2,1
				c0.5,2.2-0.5,4.1-2.9,5.6c-0.2,0-0.4,0-0.6,0l-0.5,3.3c0.1,0,0.2,0.1,0.3,0.1c1.1,0.4,2.2,0.7,3.3,1l0.2-0.8l-0.2,0.8
				c2,0.6,4.1,1,6.3,1.4c3.5,0.6,7.1,1.1,10.8,1.3c2.3,0.1,4.7,0.1,7.1,0.1l3.2-4.7l-1.2-1.5l0.8-3l-0.8,3c1.1-3.4,3.2-5.4,6.3-6
				l10.4-15.3l0.3-11.7c-2.1-0.2-3.7-1.7-4.6-4.6c-0.1-0.2-0.1-0.4-0.2-0.6c0.1-0.5,0.2-1,0.5-1.5l-1.1-1.5l0.6-0.5
				C255.7,132.7,247.3,132.1,240.9,128.2 M248.3,149.8l17.4,0.9l-30,13.8l30-13.8L248.3,149.8 M254.9,146.8l-21,7.2L254.9,146.8
				 M238.6,188.1c0-0.1,0-0.1,0-0.2c-1,0-2,0-3,0l-0.1,7l-4.9,5.3v6l-10.6,2.6c0.6,0.9,1.2,1.9,1.9,2.8l0.8,1.4l7.1-0.9h0.1l1.6,3.3
				c0.8-0.9,1.4-1.7,1.9-2.5c0.9-1.5,1.7-3.2,2.3-4.9c0.2-0.5,0.3-0.9,0.5-1.4c0.1-0.2,0.2-0.4,0.3-0.6c1-3.3,1.7-6.9,2.1-10.9
				c0.1-1,0.1-2,0.2-3.1C238.7,190.8,238.7,189.5,238.6,188.1 M223.4,189.4l0.9-3c-6.4-1.3-12.6-3.4-18.7-6.2c2.3,6.1,5,12,8.1,17.9
				c1.5,2.8,3.2,5.7,4.9,8.5c0,0,0,0.1,0.1,0.1l9.4-2.9l-0.5-4.9l5-5.3l1.7-5.8c-0.6-0.1-1.2-0.1-1.8-0.1l-1.1,2.3l1.1-0.3l-1.1,0.3
				l-0.4,1l0.4-1l-3.1,0.7l1.3-3.3c-1.8-0.2-3.7-0.5-5.4-0.9L223.4,189.4 M227.9,174.8c-0.7,0.4-1.3,0.8-1.8,1.3
				c-3.4,2.7-4,6.2-1.8,10.3c1.8,0.4,3.6,0.7,5.4,0.9l4.4-11.1C232.1,175.8,230,175.4,227.9,174.8 M242.3,181.4l-6.9-0.2l-2.8,6.4
				c0.6,0,1.1,0.1,1.8,0.1c0.4,0,0.9,0.1,1.3,0.1c1,0,2,0,3,0c1,0,1.9,0,2.9,0L242.3,181.4 M206.4,170.3l-3.3,2.6
				c0.8,2.4,1.6,4.9,2.5,7.3c6.1,2.8,12.3,4.9,18.7,6.2c-2.2-4.1-1.6-7.6,1.8-10.3c0.5-0.5,1.1-0.9,1.8-1.3c-1.1-0.3-2.2-0.6-3.3-1
				c-0.1,0-0.2-0.1-0.3-0.1c-0.7-0.2-1.4-0.5-2.2-0.8c-3.3-1.2-6.5-2.6-9.6-4.3h-0.1c-0.4-0.2-0.8-0.4-1.1-0.6l-0.1-0.2L206.4,170.3
				 M223.4,121.3l-0.5-0.7h-0.1c1.4-1.7,3.1-2.5,5.3-2.4l-0.1-0.1l-9.8-17.3l-0.4,0.2l-6.5,66.5v0.3l-0.1,0.1l0.1,0.2
				c0.4,0.2,0.7,0.4,1.1,0.6h0.1c3.1,1.6,6.4,3.1,9.6,4.3l0.3-0.7l0.6-2.1c-1.7-0.5-3.1-1.4-4-2.8c-0.2-0.3-0.4-0.5-0.5-0.8
				c-0.3-0.5-0.5-1-0.7-1.6c-0.2-0.6-0.4-1.3-0.5-1.9c0.2-0.7,0.5-1.3,0.8-1.8c0.8-1.5,1.8-2.2,2.9-2c0.2,0,0.3,0.1,0.6,0.2
				c1.7-0.1,3.1,0.2,4.3,0.9l0.5-1.8l-0.6-0.2l-3-14.8v-0.9l4.6-7.6c-4.4-1.1-6.2-3.9-5.5-8.5C222,124.9,222.6,123.2,223.4,121.3
				 M217.8,156.1l-4.9,11.9L217.8,156.1l0.8-20.8L217.8,156.1z"/>
			<path fill="#65B8EE" d="M262.3,170.7l-0.2-0.8c-2.3,3.2-4,4.3-5.1,3.3l-3.4,4.7l2.5,0.6l0.2,0.1l1.3-1.9L262.3,170.7
				 M302.3,115.3l-0.5-0.6L289,126.3l-6.3-3.3c3.3,3.4,3.2,6.7-0.3,10.2l-5.3,3.2c-1.3,0.8-2.6,1.4-3.7,1.7l0.9,11l-12,16.7l0,3.8
				l1.6-2.5l9.5-9.4l2.1-2.2l0.5,0.2l4.1-10.2l0.1-0.8l1.9-9l-1.9,9l2.1-2.6l0.2-0.3l7.6-9.4l-7.6,9.4l2.8,2.8l5.8,5.8l0.9-0.1h0.1
				l1-1.4l0.4-0.6l-0.4,0.6l7.3,0.3v0.3l9.9,3.4l3.5-1.3c-0.7-3.1-1.9-5.8-3.6-7.9c-1.9-2.3-4.5-4.2-7.7-5.6
				c3.2,1.4,5.8,3.2,7.7,5.6c1.8,2.2,3,4.8,3.6,7.9l1.5-0.6l0.1-0.1l7.1,1.5l0.6-0.4l-14.9-21.6l-1.6,1.1l-1.5-5.6L302.3,115.3
				 M298.6,131.4l-7.8,0.9L298.6,131.4 M282.3,122.8l-1.3-0.7l-8.1,1.5l-6.3,5.8l-0.3,0.3l-0.6,0.5l1.1,1.5c1-1.9,3.5-4.3,7.5-7.3
				c0.1-0.1,0.3-0.3,0.4-0.3L282.3,122.8z"/>
			<path fill="#7FA3C5" d="M261.5,165.1c-0.4,0-0.8,0.1-1.1,0.2c-3.1,0.7-5.2,2.7-6.3,6l1.2,1.5l0.5,0.6l-0.5-0.6l-3.2,4.7l1.6,0.3
				l3.4-4.7l-1.3,0.9l1.3-0.9c1.1,1,2.8-0.1,5.1-3.3v-0.1l0.2-0.3c0,0,0-0.1,0.1-0.1l0-3.8v-0.8
				C262.1,165.1,261.8,165.1,261.5,165.1 M282.7,123.1l-0.5-0.3l-7.6,1.3c-0.1,0.1-0.3,0.2-0.4,0.3c-4,2.9-6.5,5.3-7.5,7.3
				c-0.3,0.5-0.5,1-0.5,1.5c0.1,0.2,0.1,0.4,0.2,0.6c1,2.9,2.5,4.4,4.6,4.6c0.7,0.1,1.6,0,2.5-0.3c1.1-0.3,2.4-0.9,3.7-1.7l5.3-3.2
				C285.9,129.8,286,126.5,282.7,123.1 M226.5,160.8c-0.2-0.2-0.5-0.4-0.7-0.5c-1.1-0.7-2.5-1-4.3-0.9c-0.2-0.1-0.4-0.2-0.6-0.2
				c-1.1-0.2-2.1,0.5-2.9,2c-0.3,0.5-0.5,1.1-0.8,1.8c0.1,0.7,0.3,1.3,0.5,1.9c0.2,0.6,0.4,1.1,0.7,1.6c0.1,0.3,0.3,0.5,0.5,0.8
				c0.9,1.4,2.3,2.3,4,2.8c0.6,0.2,1.2,0.3,1.8,0.3c0.2,0,0.4,0,0.6,0c2.4-1.6,3.4-3.4,2.9-5.6c-0.1-0.4-0.1-0.7-0.2-1
				C227.9,162.5,227.3,161.5,226.5,160.8 M231.9,119l-3.8-0.8c-2.2-0.1-3.9,0.8-5.3,2.4h0.1l0.5,0.7c-0.8,1.9-1.3,3.7-1.6,5.2
				c-0.7,4.6,1.1,7.4,5.5,8.5c0.1,0,0.2,0,0.3,0.1c0.1,0,0.1,0,0.3,0.1c0.6,0.2,1.2,0.4,1.8,0.6c3.8,1.1,7.1,0.6,9.9-1.6
				c1.4-1.9,1.9-3.9,1.4-5.9c-0.3-1.1-0.8-2.2-1.5-3.3c-0.7-1-1.6-2-2.6-3c-0.3-0.3-0.6-0.6-0.9-0.8c0,0-0.1-0.1-0.1-0.1
				c-0.1,0-0.1-0.1-0.2-0.1C234.3,120,233,119.4,231.9,119z"/>
			<path fill="#EBF151" d="M273.5,138.1c-0.9,0.2-1.7,0.3-2.5,0.3l-0.3,11.7l-10.4,15.3c0.4-0.1,0.8-0.2,1.1-0.2
				c0.3,0,0.6-0.1,0.9-0.1v0.8l12-16.7L273.5,138.1 M241.6,187.9c-1,0-1.9,0-2.9,0c0,0,0,0.1,0,0.2c0,1.4,0,2.8,0,4
				c-0.1,1-0.1,2.1-0.2,3.1c-0.3,4-1,7.6-2.1,10.9c-0.1,0.2-0.2,0.4-0.3,0.6c-0.2,0.4-0.3,0.9-0.5,1.4c-0.7,1.7-1.4,3.4-2.3,4.9
				c-0.5,0.8-1.1,1.6-1.9,2.5l0.9,1.6l24.7-1.1l0.1-0.2l5.9-10.8l-7.6-18.3c-0.9,0.1-1.8,0.3-2.8,0.4l7.5,17.1l-7.2,10.2l-10.2-0.9
				l-6.3,1.1l5-21.6l-1.4,0.1L241.6,187.9 M245.9,118.4c0,0,0,0.1,0.1,0.1c1.1,1.9,2.4,2.9,4,3l1.7-3.7l-2.5-4.3
				c-0.6,1.6-2.1,2.3-4.3,2.3c0.3,0.9,0.6,1.7,1,2.4C245.8,118.3,245.8,118.3,245.9,118.4L245.9,118.4c2.2,0.8,3.5,0.2,3.9-1.8
				C249.4,118.7,248.1,119.3,245.9,118.4 M235.6,187.9c-0.4,0-0.9-0.1-1.3-0.1l-1.7,5.8l-5,5.3l0.5,4.9l-9.4,2.9
				c0.4,0.7,0.9,1.4,1.3,2.1l10.6-2.6v-6l4.9-5.3L235.6,187.9 M235.4,181.3l6.9,0.2l-0.8,6.4l-1.7,5.1l1.4-0.1l3.3-0.2l0.1-4.9
				l0.2-9.5v-0.8c-3.7-0.2-7.3-0.6-10.8-1.3l-4.4,11.1l-1.3,3.3l3.1-0.7l1.1-2.3L235.4,181.3 M224.9,170.4c-0.7-0.1-1.3-0.2-1.8-0.3
				l-0.6,2.1l-0.3,0.7c0.7,0.3,1.4,0.5,2.2,0.8L224.9,170.4 M229.5,136.1l-1.9-1.1c-0.1,0-0.2-0.1-0.3-0.1l-4.6,7.6v0.9l3,14.8
				l0.6,0.2l0.8-0.5l-1.4-15.1L229.5,136.1 M238.2,84.4l-0.3-0.1l-2.8,6.3l2.3,2.5l1.3,1.5l-0.1,4.3l-0.3,9.1l1.4-1.4l0.9-6.6
				l3.4-0.8l1.3-1.3c-2.5-1-3.3-2.5-2.4-4.5l-1.6-0.1v-3.2l1.9,0.5L238.2,84.4 M280.8,90.9L280.8,90.9c-0.5,0.3-1,0.5-1.5,0.8v3.9
				l0,6l-3,4.3l-0.2,2.3h0.8l0.4,5.2l3.2-3.3l0-4.1l0,4.1l-3.2,3.3l-1.8,3.4l3.3-0.6l3-5.3l2.4,2.8c1.5-1,1.9-3,1.1-5.9l-2.6-5.4
				l0.5-6.7l-0.1-0.2L280.8,90.9 M258.2,93.6l2-1.3c-1.4-0.4-2.8-1-4.2-1.6l-2.1,2.8l3.5,0.5L258.2,93.6 M245.8,98.1
				c-0.2-0.1-0.3-0.1-0.5-0.2l-1.3,1.3l-3.4,0.8l-0.9,6.6l0.7,0.3l1.4-1.2l-0.6-2.7l3.1-2.8l-3.1,2.8l0.6,2.7l-1.4,1.2l-2.1,1.6
				l-0.1,0.9l4.4,2.6l2,8.1c1.7,4.1,3.7,5.6,5.8,4.3l2.8-6.3l-4.2-7.8l0.6-6l0.2-0.5l3.8-9.9l0.3-0.3l2.1-2.8
				c-1.6-0.7-3.2-1.5-4.8-2.4c-2,3.8-3.2,8.2-3.8,13.2c-0.1,1.3-0.2,2.6-0.3,4l0.2,5.2l1.7,2.9l2.5,4.3l-1.7,3.7l-0.2,1l0.2-1
				c-1.6-0.1-2.9-1.1-4-3c0,0-0.1-0.1-0.1-0.1l0,0c0-0.1-0.1-0.1-0.1-0.2c-0.4-0.7-0.7-1.5-1-2.4c-0.2-0.6-0.4-1.2-0.6-1.8
				c-0.3-1-0.5-2.2-0.6-3.4v-0.1c-0.1-0.7-0.2-1.4-0.3-2.2l-0.1,0.1l-2.4-1.3l2.4,1.3l1.3-1l-0.6-5.3l0.6,5.3l-1.3,1
				c0.1,0.8,0.2,1.5,0.3,2.2v0.1c0.2,1.2,0.4,2.4,0.6,3.4c0.2,0.6,0.3,1.2,0.6,1.8c2.2,0,3.7-0.7,4.3-2.3l-1.7-2.9l-3,0.8l3-0.8
				l-0.3-0.7l-0.3-5.2l-1.8-2.3L245.8,98.1z"/>
			<path fill="#FFF0EB" d="M238.2,109.4v0.3c1.4,1.7,2.1,4.5,2,8.6c0,1.2-0.1,2.6-0.3,4.1c-0.1,0.6-0.2,1.2-0.3,1.8
				c-0.1,0.3-0.1,0.6-0.2,0.8c0.7,1.1,1.2,2.2,1.5,3.3c6.4,3.9,14.8,4.5,25.3,1.6l0.3-0.3l-0.6-0.7l-2.4-11.4l-0.2-0.8h0l-2.5,8
				l2.5-8l-10.8-6.6l-2.8-6.2l-0.2,0.5l-0.6,6l4.2,7.8l-2.8,6.3l0.5,0.3l-0.5-0.3c-2.1,1.3-4.1-0.2-5.8-4.3l-2-8.1L238.2,109.4
				 M259.6,96.2l-1.4-2.6l-0.8,0.5l-3.5-0.5l-0.3,0.3l-3.8,9.9l2.8,6.2l10.8,6.6v-0.1l0.2-0.5l-0.2,0.5l0,0.1l0.2,0.8l8.9-1l3-4.6
				l0.6-3.6l0.2-2.3l3-4.3l0-6c-2.3,1.3-4.6,1.3-6.8,0.1l1,8.3l-1.1,0.5l-1.7-1l-1.2,0.7l-2.2-1l0.4-1.1l-0.4,1.1l2.2,1l1.2-0.7
				l-1-0.8l1,0.8l1.7,1l1.1-0.5l-1-8.3l-3.7-0.8l-3.4,1.8L259.6,96.2 M267.1,107.6l-3.6,1.2L267.1,107.6l5-0.6L267.1,107.6
				 M273.6,108.5l-1.2-1.1L273.6,108.5 M266.3,111.7l3.9-0.9L266.3,111.7 M260.3,108.3l-0.5-4l-2.6-2.6l2.6,2.6L260.3,108.3z"/>
			<path fill="#A0CDEC" d="M247.9,74.2v-0.6c-0.3,0.2-0.7,0.4-1.1,0.6c0.4-0.2,0.7-0.4,1.1-0.6c-3.6-6.3-6.6-14.5-9.1-24.6
				c-3,4-2.5,11.2,1.5,21.4l5.3,8.8l-5.3-8.8l-5.4-9.2c0.1,6.6,2,12.8,5.6,18.8l3.9,2.9l-3.9-2.9l-4.8-5.6c0.3,2.6,1.2,4.9,2.4,7
				c1.3,2.2,3.1,4.2,5.5,5.8l-5.5-2.8l4.9,6.2l-1.9-0.5v3.2l1.6,0.1c-0.8,1.9,0,3.4,2.4,4.5c0.2,0,0.3,0.1,0.5,0.2l0.7-4.3l-0.7,4.3
				l-0.8,4.4l1.8,2.3l0.4,0.7c0-1.4,0.1-2.7,0.3-4c0.5-5,1.8-9.4,3.8-13.2c-0.1,0-0.2-0.1-0.3-0.1l0.4-0.3l2.4-1.8l0.1-0.2l-1.4-2
				l-0.4-4.7L247.9,74.2z"/>
			<path fill="#3C3CA0" d="M274.6,72.6c-0.1,0-0.1-0.1-0.1-0.1c-0.1-0.1-0.1-0.1-0.3-0.2c-3.4-2.1-7-3.1-11-3.1l5.6,7.6l-5.6-7.6
				c-0.9,0-1.8,0.1-2.8,0.2c-3.9,0.4-8.1,1.8-12.5,4.2v0.6l4.1,5.1l0.4,4.7l1.4,2l-0.1,0.2c5.8,3.1,11.7,4.9,17.8,5.5l-1.9-3.1
				l-4.7-0.5l-4.9-7.7l4.9,7.7l4.7,0.5l1.9,3.1c-6.1-0.6-12.1-2.5-17.8-5.5l-2.4,1.8c-0.1,0.1-0.1,0.3-0.2,0.4
				c1.6,0.9,3.2,1.7,4.8,2.4c1.4,0.6,2.8,1.2,4.2,1.6c0.1,0,0.2,0.1,0.3,0.1c4.3,1.4,8.2,1.8,11.8,1.4c0.5-0.1,1.1-0.1,1.7-0.3
				c-0.1-5-1-8.6-2.6-10.9c1.6,2.3,2.5,5.9,2.6,10.9c1.9-0.4,3.6-1,5.3-1.9c0.5-0.2,0.9-0.5,1.4-0.8h0c0.8-0.5,1.6-1.1,2.4-1.7
				c-0.6-4-1.8-7.6-3.6-10.7c0,0,0-0.1,0-0.1C278.2,76.3,276.6,74.3,274.6,72.6 M278.3,78.8v5.1l-2.7,4.8l0.3,1.8l5.3-3.2l-5.3,3.2
				l-0.3-1.8l2.7-4.8V78.8z"/>
		</g>
	</g>
	<g>
		<path id="Layer0_0_MEMBER_0_1_STROKES" fill="none" stroke="#000000" stroke-linecap="round" stroke-linejoin="round" d="
			M315.8,179.4l0.6,5.1l7.1,3.7l-2.4-4.6l5.4,1.2c5.5-1.1,8.3-5.3,8.3-12.4c0-0.1,0-0.2,0-0.3s0-0.2,0-0.3c0-0.9,0-1.8-0.1-2.8
			c1.9-8.8-1.7-14.3-10.9-16.6c-0.4-0.1-0.7-0.2-1.1-0.3l-7.1-1.5 M315.4,151l-1.4,1.1l-1.1,0.7l2.2,1.6h0l12,8.8l2.1,8.8
			 M277.2,63.8c-0.1-2.7,0-5.1,0.4-7.3l-2,4l0.3,5.3l0.3,5.3 M274.5,72.5c0,0,0.1,0.1,0.1,0.1l-0.1-0.8L274.5,72.5
			c-0.1-0.1-0.1-0.1-0.3-0.2c-3.4-2.1-7-3.1-11-3.1l5.6,7.6 M275.9,65.8l-2,1.9l0.6,4.2 M260.5,69.4c0.9-0.1,1.9-0.2,2.8-0.2
			l-1.8-2.4L260.5,69.4c-3.9,0.4-8.1,1.8-12.5,4.2v0.6l4.1,5.1l0.4,4.7l1.4,2l-0.1,0.2c5.8,3.1,11.7,4.9,17.8,5.5l-1.9-3.1l-4.7-0.5
			l-4.9-7.7 M246.9,74.2c0.4-0.2,0.7-0.4,1.1-0.6c-3.6-6.3-6.6-14.5-9.1-24.6c-3,4-2.5,11.2,1.5,21.4l5.3,8.8 M246.8,104.8l-1.8-2.3
			l0.8-4.4c-0.2-0.1-0.3-0.1-0.5-0.2l-1.3,1.3l-3.4,0.8l-0.9,6.6 M240.4,106.9l1.4-1.2l-0.6-2.7l3.1-2.8 M245.8,98.1l0.7-4.3
			 M251.4,87.9l-0.4,0.3c0.1,0,0.1,0.1,0.3,0.1C251.3,88.2,251.3,88.1,251.4,87.9l2.4-1.8 M260.2,92.3c0.1,0,0.2,0.1,0.3,0.1
			c4.3,1.4,8.2,1.8,11.8,1.4c0.5-0.1,1.1-0.1,1.7-0.3c-0.1-5-1-8.6-2.6-10.9 M258.2,93.6l2-1.3c-1.4-0.4-2.8-1-4.2-1.6l-2.1,2.8
			 M257.4,94.1l0.8-0.5l1.4,2.6l5.7,0.5l3.4-1.8 M272.3,93.8l0.2,1.8 M253.9,93.6l-0.3,0.3l-3.8,9.9l2.8,6.2l10.8,6.6v-0.1l0.2-0.5
			 M251.2,88.3c1.6,0.9,3.2,1.7,4.8,2.4 M278.3,78.8v5.1l-2.7,4.8l0.3,1.8l5.3-3.2 M279.5,78.5C279.5,78.5,279.5,78.6,279.5,78.5
			c1.9,3.2,3,6.7,3.6,10.8c-0.8,0.6-1.5,1.2-2.4,1.7l2.3,4.5h0.1l8-1.5l7.9,7.5l5.2,10.9l-2.5,2.3 M302.3,115.3l3,10.6l3.1,4.6
			l14.9,21.6l0.5,0.7 M279.5,78.5l0.3-1.6c-1.6-1.7-3.3-3.2-5.1-4.3C276.6,74.3,278.2,76.3,279.5,78.5z M279.3,91.7
			c0.5-0.2,0.9-0.5,1.4-0.8h0 M274,93.6l0.1,0.5 M283,95.4l0.1,0.2 M279.3,91.7v3.9l0,6l-3,4.3l-0.2,2.3h0.8l0.4,5.2l3.2-3.3l0-4.1
			 M274,93.6c1.9-0.4,3.6-1,5.3-1.9 M272.5,95.7c2.2,1.2,4.5,1.2,6.8-0.1 M279.8,76.9c-0.7-4.3-0.9-8.6-0.5-12.9
			c0.6-6.4,2.5-12.8,5.6-19.3 M284.3,44.5c-3.5,2.9-5.8,6.9-6.6,12 M238.4,47.6l0.5,1.4 M201.6,172.6l1.2-0.6
			c-2.1-6.7-3.6-13.6-4.7-20.6c-0.4-2.3-0.7-4.7-0.9-7l-3.9-32.3v0l-0.3-2.8V93.7l2.5-7.8l0.1-0.5l-0.8,0.3h-3.9l-3.9,13.8l2,12.5
			c0.2,0.2,0.4,0.4,0.4,0.7c0.1,1.4,0.2,2.9,0.3,4.3c0.9,12.9,2.2,24.7,3.8,35.2c0,0,0,0.1,0.1,0.1v0c3.2,21.4,7.8,37.7,13.7,48.9
			c0,0.1,0.1,0.1,0.1,0.1c0,0.1,0.1,0.1,0.1,0.3 M207.5,201.5c0.1,0.4,0.2,0.8,0.3,1.1c4.4,19.7,12.7,38,24.9,55.1 M234.6,60.7
			l0.3,0.5l5.4,9.2 M238.2,84.4l5.5,2.8c-2.4-1.7-4.2-3.7-5.5-5.8c-1.3-2.1-2.1-4.4-2.4-7l4.8,5.6c-3.6-5.9-5.5-12.2-5.6-18.8
			 M238.2,84.4l4.9,6.2l-1.9-0.5v3.2l1.6,0.1c-0.8,1.9,0,3.4,2.4,4.5 M238.1,83.8l-0.2,0.5l-2.8,6.3l2.3,2.5l1.3,1.5l-0.1,4.3
			l-0.3,9.1l1.4-1.4 M231.6,86.7c0-0.1,0-0.2,0-0.3c0-0.4,0.1-0.9,0.1-1.3c0-0.2,0-0.5,0.1-0.8l-8.4-0.1l-12.8-4.2l-14.9,5.1
			 M231.8,84.4l0.8-0.3 M237.4,93.1c-1.9-1.3-3.7-3.1-5.2-5.4c-0.2-0.3-0.4-0.7-0.6-1c-1.1,12.2,0.3,23.2,3.9,33.1l0.9,0.2
			 M232.1,87.7l3,2.9 M195.6,85.8l18.8-1.5l3.3,15.5l0.6,1l9.8,17.3l0.1,0.1l3.8,0.8l3.6,0.8c0,0,0.1,0.1,0.1,0.1
			c0.1,0.1,0.1,0.2,0.1,0.4l3.9,3.8c0.1-0.6,0.2-1.2,0.3-1.8c-1.2-4.6-1.8-9.1-1.9-13.5c0-0.2,0-0.3,0-0.5c-0.1-3.2,0.1-6.3,0.6-9.5
			 M240.4,106.9l-2.1,1.6l-0.1,0.9l4.4,2.6l2,8.1c1.7,4.1,3.7,5.6,5.8,4.3l2.8-6.3l-4.2-7.8l0.6-6l0.2-0.5 M238.2,109.4v0.3
			c1.4,1.7,2.1,4.5,2,8.6c0,1.2-0.1,2.6-0.3,4.1 M238.3,108.5v-0.6l-0.3,0.4 M222.9,120.6L222.9,120.6c1.3-1.7,3.1-2.5,5.3-2.4
			 M231.9,119c1.2,0.4,2.4,1,3.7,1.8c0.1,0,0.1,0.1,0.2,0.1c0,0,0.1,0.1,0.1,0.1c0.3,0.3,0.6,0.5,0.9,0.8c1.1,1,1.9,2,2.6,3
			c0-0.3,0.1-0.6,0.2-0.8 M240.9,128.2c0.5,2.1,0,4.1-1.4,5.9c-2.8,2.1-6.1,2.7-9.9,1.6l-0.1,0.4l-3.8,6.8l1.4,15.1v0.3l0.1,1
			 M239.4,124.9c0.7,1.1,1.2,2.2,1.5,3.3c6.4,3.9,14.8,4.5,25.3,1.6l0.3-0.3 M266,128.8l-2.4-11.4l-0.2-0.8h0l-2.5,8 M227.6,135
			c-0.1,0-0.2-0.1-0.3-0.1l-4.6,7.6 M225.8,158.3l-3-14.8 M229.6,135.7c-0.6-0.2-1.2-0.4-1.8-0.6c-0.1,0-0.2-0.1-0.3-0.1
			 M227.3,134.9c-4.4-1.1-6.2-3.9-5.5-8.5c0.2-1.5,0.8-3.3,1.6-5.2 M187.1,99.3l-4.8,18l-6.9,37.8h0.1 M175.6,155.1L175.6,155.1
			l-2.1,19.8l-9,13.5l-2.7,18 M161.6,206.8l-7.2,8.3 M155.3,215.8c-3.5,5.2-5,10.6-4.6,16.1l0.7-0.8 M226.3,158.4l-0.5,1.8
			c0.2,0.1,0.5,0.3,0.7,0.5l0.1-1.1 M226.5,160.8c0.8,0.7,1.4,1.8,1.7,3.1c0.1,0.3,0.1,0.6,0.2,1c0.5,2.2-0.5,4.1-2.9,5.6
			c-0.2,0-0.4,0-0.6,0l-0.5,3.3c0.1,0,0.2,0.1,0.3,0.1c1.1,0.4,2.2,0.7,3.3,1l0.2-0.8 M224.9,170.4c-0.7-0.1-1.3-0.2-1.8-0.3
			l-0.6,2.1 M224.4,173.7c-0.7-0.2-1.4-0.5-2.2-0.8 M223.1,170.1c-1.7-0.5-3.1-1.4-4-2.8c-0.2-0.3-0.4-0.5-0.5-0.8
			c-0.3-0.5-0.5-1-0.7-1.6c-0.2-0.6-0.4-1.3-0.5-1.9c0.2-0.7,0.5-1.3,0.8-1.8c0.8-1.5,1.8-2.2,2.9-2c0.2,0,0.3,0.1,0.6,0.2
			c1.7-0.1,3.1,0.2,4.3,0.9 M203.1,172.9l3.3-2.6l-3.6,1.8C202.9,172.3,203,172.6,203.1,172.9c0.8,2.4,1.6,4.9,2.5,7.3
			c6.1,2.8,12.3,4.9,18.7,6.2c-2.2-4.1-1.6-7.6,1.8-10.3c0.5-0.5,1.1-0.9,1.8-1.3c2,0.6,4.1,1,6.3,1.4c3.5,0.6,7.1,1.1,10.8,1.3
			c2.3,0.1,4.7,0.1,7.1,0.1l3.2-4.7l-1.2-1.5l0.8-3 M211.4,167.8L211.4,167.8l0,0.3c0.4,0.2,0.7,0.4,1.1,0.6h0.1
			c3.1,1.6,6.4,3.1,9.6,4.3 M211.3,167.9l-4.9,2.4l3.4-2.8 M211.3,167.9l-2.9-10.3l4.7-6.9l-4.1-12.9 M218.6,135.4l-0.8,20.8
			l-4.9,11.9 M234.2,176.3l-4.4,11.1l-1.3,3.3l3.1-0.7l1.1-2.3l2.8-6.4l6.9,0.2l-0.8,6.4l-1.7,5.1l1.4-0.1l3.3-0.2l0.1-4.9l0.2-9.5
			 M223.4,189.4l0.9-3c1.8,0.4,3.6,0.7,5.4,0.9 M232.6,189.6l-1.1,0.3l-0.4,1 M241.6,187.9c-1,0-1.9,0-2.9,0c0,0,0,0.1,0,0.2
			c0,1.4,0,2.8,0,4c-0.1,1-0.1,2.1-0.2,3.1c-0.3,4-1,7.6-2.1,10.9c-0.1,0.2-0.2,0.4-0.3,0.6c-0.2,0.4-0.3,0.9-0.5,1.4
			c-0.7,1.7-1.4,3.4-2.3,4.9c-0.5,0.8-1.1,1.6-1.9,2.5l0.9,1.6l24.7-1.1l0.1-0.2l5.9-10.8l-7.6-18.3c-0.9,0.1-1.8,0.3-2.8,0.4
			l7.5,17.1l-7.2,10.2l-10.2-0.9l-6.3,1.1l5-21.6 M220,208.8l10.6-2.6v-6l4.9-5.3l0.1-7c-0.4,0-0.9-0.1-1.3-0.1l-1.7,5.8l-5,5.3
			l0.5,4.9l-9.4,2.9C219.1,207.3,219.6,208.1,220,208.8c0.6,0.9,1.2,1.9,1.9,2.8l0.8,1.4l7.1-0.9h0.1l1.6,3.3 M238.6,187.9
			c-1,0-2,0-3,0 M234.4,187.8c-0.6-0.1-1.2-0.1-1.8-0.1 M202.1,173.8l1.1-0.9 M217.9,101.1l-6.5,66.5 M283.1,95.6l-0.5,6.7l2.6,5.4
			c0.8,2.9,0.4,4.9-1.1,5.9l0.6,0.6 M298.6,131.4l-7.8,0.9 M305.2,125.8l1.5,5.6 M302.5,138.1c3.2,1.4,5.8,3.2,7.7,5.6
			c1.8,2.2,3,4.8,3.6,7.9 M301.8,114.7L289,126.3l-6.3-3.3c3.3,3.4,3.2,6.7-0.3,10.2l-5.3,3.2c-1.3,0.8-2.6,1.4-3.7,1.7l0.9,11
			l-12,16.7l0,3.8l1.6-2.5l9.5-9.4 M280.1,145.4l0.1-0.8l1.9-9 M267.8,102.1l-0.4,1.1l2.2,1l1.2-0.7l-1-0.8 M272.5,95.7l1,8.3
			l-1.1,0.5l-1.7-1 M272.1,107l-5,0.6l-3.6,1.2 M276.1,108.1l-0.6,3.6l-3,4.6l-8.9,1 M263.4,116.6l0-0.1 M275.5,116.7l1.8-3.4
			 M284.1,113.6l-2.4-2.8l-3,5.3l-3.3,0.6l-0.5,0.1 M282.7,123.1l-0.5-0.3l-7.6,1.3c-0.1,0.1-0.3,0.2-0.4,0.3
			c-4,2.9-6.5,5.3-7.5,7.3c-0.3,0.5-0.5,1-0.5,1.5c0.1,0.2,0.1,0.4,0.2,0.6c1,2.9,2.5,4.4,4.6,4.6c0.7,0.1,1.6,0,2.5-0.3
			 M282.3,122.8l0.2,0c0,0,0.1,0.1,0.1,0.1c0,0,0.1,0.1,0.1,0.2 M282.3,122.8l-1.3-0.7l-8.1,1.5l-6.3,5.8 M273.6,108.5l-1.2-1.1
			 M266.3,111.7l3.9-0.9 M260.3,108.3l-0.5-4l-2.6-2.6 M240.9,107.2l2.4,1.3l0.1-0.1 M246.8,104.8l0.3,5.2l0.3,0.7 M247.2,105.5
			l-0.4-0.7 M244.1,102.2l0.6,5.3l-1.3,1c0.1,0.8,0.2,1.5,0.3,2.2v0.1c0.2,1.2,0.4,2.4,0.6,3.4c0.2,0.6,0.3,1.2,0.6,1.8
			c2.2,0,3.7-0.7,4.3-2.3l-1.7-2.9l-3,0.8 M251.2,88.3c-2,3.8-3.2,8.2-3.8,13.2c-0.1,1.3-0.2,2.6-0.3,4 M249.8,116.6
			c-0.4,2.1-1.7,2.7-3.9,1.8c0,0,0,0.1,0.1,0.1c1.1,1.9,2.4,2.9,4,3l1.7-3.7l-2.5-4.3 M244.8,115.8c0.3,0.9,0.6,1.7,1,2.4
			c0,0,0,0.1,0.1,0.2l0,0 M249.9,121.6l-0.2,1 M250.9,124.7l-0.5-0.3 M266.2,129.8l-0.6,0.5 M282.4,142.1l-2.1,2.6 M280.9,167.3
			l4.3,3.2l1.1-0.9l11.8-9.9 M294.6,179.8l-1.8-1.6l-0.7-0.1 M260.4,165.4c0.4-0.1,0.8-0.2,1.1-0.2c0.3,0,0.6-0.1,0.9-0.1v0.8
			 M262.4,169.6C262.3,169.6,262.3,169.6,262.4,169.6l-0.3,0.3v0.1l0.2,0.8l-4.6,5.9 M256.1,178.5l-0.3,4.3l0.1,0.2
			c0.1,0.1,0.1,0.2,0.3,0.3c0.1,0,0.1,0.1,0.2,0.2c0.1,0.1,0.2,0.2,0.4,0.3 M266.9,196.4c0.9,1.3,1.7,2.7,2.6,4.2c0,0,0,0.1,0,0.1
			c0,0,0,0.1,0,0.1c0,0,0.1,0.1,0.1,0.1c0.1,0.2,0.2,0.3,0.3,0.4c1.2,2.1,2.3,4.3,3.3,6.6 M277.4,219.1c2.3,7.4,4,15.4,5.1,24.2
			 M282,243.6L282,243.6l0.1,0.2l3.9,6.7l7-3.9l0.1,0.9l1.7,16.2l-4.5,12l-17.1,2.7l-3.6,3.6c-0.3-0.3-0.6-0.5-0.8-0.6h0
			c-0.3-0.2-0.7-0.5-1-0.7 M268.4,282h-1 M254.1,171.4c1.1-3.4,3.2-5.4,6.3-6l10.4-15.3l0.3-11.7 M256.1,178.5l-2.5-0.6l-1.6-0.3
			 M256.6,183.8v0.1l1.6,1.9l8.7,10.6 M252.5,187c-2.6,0.3-5.2,0.6-7.8,0.8 M258.2,185.8c-1.1,0.3-2.1,0.6-3,0.8 M248.3,149.8
			l17.4,0.9l-30,13.8 M257,173.2l-1.3,0.9 M255.8,173.4l-0.5-0.6 M262.1,169.9c-2.3,3.2-4,4.3-5.1,3.3l-3.4,4.7 M312.9,152.8
			l-0.9,0.5l-1.6-0.5l-9.9-3.4 M300.5,149.1l-7.3-0.3l-1,1.4l-0.1,0.1l-6.1,8.3 M297.1,150.1l6.3,2.8l4.3,0.7l0.3,6.4h0l2.6,0.5
			l0.1,3.7l2.1,4.2l5.3,1.3l0.1-0.1 M318.8,168.9l-0.3-4.8l5.4,6.9 M320.3,174.1l-2.4,3.3 M308.3,171.6L303,177l4.5,4.9l0.5-0.2
			l7.5-8.8 M313.9,151.6c0,0.2,0.1,0.4,0.1,0.6 M301,179l2-2 M286.3,169.5l1,5.1l5.7,1.8 M308,181.7l9-3.4 M302.3,165.6l-9.4,12.5
			 M285.4,144.6l5.8,5.8 M290.3,132.4l-7.6,9.4 M293.5,148.3l-0.4,0.6 M240.6,79.9l3.9,2.9 M254.9,146.8l-21,7.2 M154.4,215
			l-0.6,0.8 M150.7,231.9c0.1,0.9,0.2,1.8,0.4,2.7c0.6,3.1,1.8,6.2,3.6,9.3 M150.7,231.9l-2.1,2.7c0,0.1,0,0.2,0,0.3
			c0.3,6.5,1.4,12,3.4,16.6l0.1,0.1c0.9,2.1,1.9,3.9,3.2,5.6 M161.3,275.8L161.3,275.8c-4.2-6.3-7.5-14.3-9.9-24 M161.3,275.8
			l-3.4,3.6l-9.5,26.4l-6.4,4.2l0.3,8.7c-4.7,21-3.5,32.8,3.6,35.4l10.9,1.5l5.6-12.8l-2-17.5l5.3-8l-0.5-9.1l13.4-18.1
			C171.7,287.6,166,282.8,161.3,275.8z M271.6,226.3l10.3,17.4 M257.3,230.8c7.8,7.2,11.9,13,12.3,17.6c0,0.7,0,1.4-0.1,2.1
			c-0.2,0.7-0.4,1.3-0.8,1.9l6.5-5.2l0.3,0.3l9,8.7c0.1,0,0.2,0.1,0.4,0.1c0.5,0.1,0.9,0.1,1.4,0.1c0.1,0,0.3,0,0.4,0
			c0.2,0,0.3,0,0.5-0.1c0.3,0,0.7-0.1,1-0.2c0.3-0.1,0.6-0.2,0.9-0.4c2.2-1.2,3.5-3.9,4-8.3 M275.5,247.6c-0.3,1.1-0.6,2.2-0.8,3.3
			c-0.9,6.8,2.2,12.6,9.5,17.4 M248.1,248.1l2.5,5.3l8.5,7.1l9.7-8 M250.1,262.3c0.2,2.8,1,5.6,2.3,8.5c0.1,0.2,0.2,0.4,0.3,0.7
			c0.6,1.4,1.4,2.8,2.4,4.3c0,0,0.1,0.1,0.1,0.2c0.1,0.1,0.1,0.2,0.2,0.3c1,1.6,2.2,3.1,3.6,4.8c0.3,0.4,0.5,0.7,0.9,1h3.3h4.4
			 M267.8,280.8c-1.8-1.2-3.4-2.4-4.8-3.7c-1.3-1.2-2.4-2.5-3.4-3.9c-0.9-1.4-1.7-2.8-2.3-4.2c-1.2-2.9-1.6-6.1-1.3-9.4 M259.7,282
			h-1l-6.4-6.7l5.8,15.4 M258.9,291.3L258.9,291.3c0.2-0.3,0.2-0.6,0.1-0.9 M286,250.5l0.4,0.6 M220,208.8l-1.8,0.4 M205.6,180.2
			c2.3,6.1,5,12,8.1,17.9c1.5,2.8,3.2,5.7,4.9,8.5c0,0,0,0.1,0.1,0.1 M207.4,201.4L207.4,201.4 M193.4,244.6l9-10.8l4.5-0.3
			 M200.9,282.6l-0.3-0.3 M192.8,285.6l1.7-0.6l6.4-2.4c6.9,2.6,12.8,5.5,17.6,8.6c4.8,3.1,8.5,6.4,11.1,10l-0.1,0.7 M228.6,311.1
			c1.8-2.7,3.3-5.5,4.6-8.5c0,0,0-0.1,0.1-0.1c5.1-12.4,5.2-27.4,0.3-44.8 M194.4,285l0.4,4.5c-0.2,1.7-0.2,3.3-0.3,4.8
			c0,0,0,0.1,0,0.1c0,0.1,0,0.2,0,0.3c0,7.6,1.8,14.1,5.3,19.4l8.9,4.1l0.1-0.1l5.4-7.3c-5.1-5.3-6.7-10.9-4.9-16.7
			c-2.6,0.4-5.2,0.4-8,0.2 M192.8,285.6l-6.1,6.1c-2.8-0.3-5.5-0.9-8.1-1.8 M241.9,247.9l0.7,1.2l9.8,26.3 M218.5,291.2
			c-2.8,1.5-5.8,2.4-8.9,2.9c0,0-0.1,0-0.2,0 M222.6,213l19.3,34.9l6.2,0.3l-15.8-31.2 M205.4,237.6c-0.1,15.4-4,27.6-11.7,36.6
			 M258.9,291.3c-6.5,10.7-16,18.6-28.4,23.9c-0.1,0-0.2,0.1-0.3,0.1c-2.2,0.9-4.5,1.7-6.8,2.5c1.4-1.5,2.7-3,3.9-4.6
			c0.4-0.6,0.8-1.1,1.2-1.7v-0.1l0.2-0.2v-0.1 M228.1,310.9l1.4-8.9 M181.4,148.3l-13.2,70.2 M189.1,186.6l-5.4,76.5"/>
	</g>
</g>
<g transform="matrix( 1, 0, 0, 1, -216.85,11.05) ">
	<g>
		<g id="Layer0_0_MEMBER_1_FILL">
			<path fill="#333132" d="M498.1,126.9l8,3.5l0.1-0.6l1-6.3C504.1,125.1,501.1,126.2,498.1,126.9 M509,97.8l-7-2.7l-2.8,6.3
				c3.7,0.2,7.6,0.8,11.6,1.9c0-0.5,0-0.9-0.1-1.4L509,97.8 M510.5,94.6c-1-0.6-2.1-1.1-3.2-1.5l1.8,4.7l1.8,4.1
				c0.1,0.5,0.1,0.9,0.1,1.4c0.7,4.9,0.1,10.1-1.8,15.5c0,0.2-0.1,0.3-0.1,0.5c-0.5,1.4-1,2.7-1.7,4.1c0,0.1,0,0.2,0,0.3l-1,6.3
				l16.3-10.9l9.1,1.3l-0.6-2.1l17.3,2.8l1.9-3l-7.2,0l7.2,0l3.3-0.1l-0.4-2.3l-8.8-0.8l8.8,0.8l0-0.1l0.4-0.1l3.4-0.9l-0.8-2.2
				l1.9-2.8l-12.7,0.3l12.7-0.3l0-0.2l-1.3-2.6l-0.2-5.1l-5,3.9l-5.5-6.5l4.8-5.7l-8.6-2.9h-0.1l-9.6,10l-5-2.3l-3.1,3.1l-5.6-1.5
				l-0.3,0.3c3.6,3.2,7.3,7.2,11.3,12c-3.9-4.8-7.7-8.8-11.3-12v-0.1c-0.1,0-0.1-0.1-0.2-0.1c0,0,0,0,0,0c-1.1-0.9-2.1-1.7-3.2-2.5
				C513.5,96.4,512,95.4,510.5,94.6z"/>
			<path fill="#67B4EC" d="M507.3,123.3c0.7-1.4,1.2-2.7,1.7-4.1c0.1-0.2,0.1-0.3,0.1-0.5c1.9-5.4,2.5-10.6,1.8-15.5
				c-4-1.1-7.9-1.7-11.6-1.9c-7.9-0.3-15.1,1.6-21.6,5.5l1,0.4l-1-0.4l-4.4-1.9c-1.4-2.8-4.9-5.2-10.5-7.3l-16.2-1.1l-0.7,0
				c-0.8,6.6,2.1,11.7,8.6,15.3c-6.6-3.6-9.5-8.7-8.6-15.3l-0.4-0.1l0-0.5c-2.2-4.1-4.6-5.7-7.4-4.7c-7.3-1.5-13.4,0.4-18.4,5.8
				c-3.9,3.6-5,9-3.1,16.1l5.9,8.3l0.3,0.4c5.4,4.4,12.3,5.8,20.6,4.1c2.7-0.5,5.5-1.4,8.5-2.6c-3,1.2-5.8,2.1-8.5,2.6
				c10.5,3.7,21.1,4.8,31.9,3.2c-0.5-0.3-0.9-0.6-1.4-0.9c0.4,0.3,0.9,0.6,1.4,0.9c0.4-0.1,0.9-0.1,1.3-0.2
				c-0.4,0.1-0.9,0.1-1.3,0.2c4.2,2.4,9,2.1,14.3-0.9c-1.2,0-2.3-0.1-3.5-0.3c-1.8-0.2-3.6-0.6-5.4-1.3c1.7,0.6,3.5,1.1,5.4,1.3
				c1.1,0.2,2.3,0.3,3.5,0.3c0.2,0,0.3,0,0.4,0c2.6,0,5.3-0.4,8-1.2c2.9-0.7,5.9-1.9,9.1-3.4C507.2,123.5,507.3,123.4,507.3,123.3
				 M486.5,110.3l4.9,0.9l5.6,5.6l5.9,0.1l-5.9-0.1l-5.6-5.6L486.5,110.3 M464.9,114.1c3.1,1.2,5.8,1.9,8.3,2.3
				c0.4,0,0.9,0.1,1.3,0.1c3.4,0.4,6.2-0.2,8.4-1.6c-2.2,1.4-5,2-8.4,1.6l12.6,3.5l-12.6-3.5c-0.4,0-0.8-0.1-1.3-0.1
				C470.7,116,467.9,115.2,464.9,114.1z"/>
		</g>
	</g>
	<g>
		<path id="Layer0_0_MEMBER_1_1_STROKES" fill="none" stroke="#000000" stroke-linecap="round" stroke-linejoin="round" d="
			M507.3,93.1c1.1,0.4,2.2,0.9,3.2,1.5c1.6,0.8,3.1,1.8,4.6,3c1,0.8,2.1,1.6,3.2,2.5c0,0,0,0,0,0c0.1,0,0.1,0.1,0.2,0.1v0.1
			 M518.8,99.9l5.6,1.5l3.1-3.1l5,2.3l9.6-10h0.1l8.6,2.9l-4.8,5.7l5.5,6.5l5-3.9l0.2,5.1l1.3,2.6l0,0.2h0l0.5-0.1 M499.3,101.3
			l2.8-6.3l7,2.7l-1.8-4.7l-0.3-0.8 M553.4,115.5l-0.4,0.1l0,0.1L553.4,115.5l3.4-0.9l-0.8-2.2l1.9-2.8l-12.7,0.3 M553.1,115.7
			l0.4,2.3l-3.3,0.1l-1.9,3l-17.3-2.8l0.6,2.1l-9.1-1.3l-16.3,10.9l-0.1,0.6l-8-3.5c-2.7,0.7-5.4,1.1-8,1.2c-0.1,0-0.3,0-0.4,0
			c-5.3,3.1-10.1,3.4-14.3,0.9c-10.7,1.6-21.4,0.5-31.9-3.2c-8.4,1.7-15.2,0.3-20.6-4.1 M422.6,121.4l-5.9-8.3
			c-1.9-7.1-0.8-12.5,3.1-16.1c5-5.3,11.1-7.3,18.4-5.8c2.8-1,5.2,0.6,7.4,4.7l1,0.7l16.2,1.1c5.6,2,9.1,4.4,10.5,7.3l4.4,1.9
			c6.5-3.9,13.7-5.8,21.6-5.5c3.7,0.2,7.6,0.8,11.6,1.9c0-0.5,0-0.9-0.1-1.4l-1.8-4.1 M544.3,114.9l8.8,0.8 M550.2,118.1l-7.2,0
			 M498.1,126.9c2.9-0.7,5.9-1.9,9.1-3.4c0-0.1,0-0.2,0-0.3c0.7-1.4,1.2-2.7,1.7-4.1c0.1-0.2,0.1-0.3,0.1-0.5
			c1.9-5.4,2.5-10.6,1.8-15.5 M486.5,110.3l4.9,0.9l5.6,5.6l5.9,0.1 M480.9,126.6c1.7,0.6,3.5,1.1,5.4,1.3c1.1,0.2,2.3,0.3,3.5,0.3
			 M506.2,129.9l1-6.3 M518.5,100.3c3.6,3.2,7.3,7.2,11.3,12 M446.6,96.6l-0.7,0c-0.8,6.6,2.1,11.7,8.6,15.3 M445.6,95.9l0.3,0.6
			l-0.4-0.1 M464.9,114.1c3.1,1.2,5.8,1.9,8.3,2.3c0.4,0,0.9,0.1,1.3,0.1c3.4,0.4,6.2-0.2,8.4-1.6 M478.8,107.2l-1-0.4 M474,128.1
			c0.4,0.3,0.9,0.6,1.4,0.9c0.4-0.1,0.9-0.1,1.3-0.2 M443.5,125.9c2.7-0.5,5.5-1.4,8.5-2.6 M474.4,116.4l12.6,3.5"/>
	</g>
</g>
</svg>
