<?xml version="1.0" encoding="utf-8"?>
<!-- Generator: Adobe Illustrator 18.0.0, SVG Export Plug-In . SVG Version: 6.00 Build 0)  -->
<!DOCTYPE svg PUBLIC "-//W3C//DTD SVG 1.1//EN" "http://www.w3.org/Graphics/SVG/1.1/DTD/svg11.dtd">
<svg version="1.1" id="Layer_1" xmlns="http://www.w3.org/2000/svg" xmlns:xlink="http://www.w3.org/1999/xlink" x="0px" y="0px"
	 viewBox="0 0 550 400" enable-background="new 0 0 550 400" xml:space="preserve">
<g transform="matrix( 1, 0, 0, 1, 98.8,11.05) ">
	<g>
		<g id="Layer0_0_MEMBER_0_MEMBER_0_MEMBER_0_FILL">
			<path fill="#D1D2D4" d="M15.1,230.8l4.9,4.8h0l0.1-0.1l1-4.3l-5.5-2.6L15.1,230.8 M63.6,241.8l-1,4.1L63.6,241.8l0.1-0.1
				L21.2,231l-0.1,0.2l-1,4.3l42.5,10.6l7.3-2.5l0.5-1.9l-6.4,0.1h-0.3H63.6 M26.4,210.4L26.4,210.4l-6.4,0.4l-4.4,17.8l5.5,2.6
				l0.1-0.2L26.4,210.4 M26.4,210.1l1-3.8l-6.9,2.5l-0.5,2l6.3-0.4L26.4,210.1 M63.7,241.6l0.3,0.1l6.4-0.1l4.5-17.9l-6-2.9
				L63.7,241.6 M64,241.8l-0.3-0.1l0,0.1H64 M68.8,220.9l-0.1-0.1l0.1-0.2l-42.3-10.6l0,0.3L21.2,231l42.5,10.6L68.8,220.9
				 M68.8,220.8l0,0.2l6,2.9l0.4-1.8l-5.5-4.9L68.8,220.8 M69.7,216.9L69.7,216.9l-18-4.6l-6.8-1.7l-17.6-4.4l0,0.1l-1,3.8
				l42.3,10.6l0.1,0.1l0.9-3.6L69.7,216.9z"/>
			<path fill="#A34B22" d="M65.4,157.2c-2-2.6-4.2-3.2-6.7-1.6l-13.7,55l0,0.1l6.8,1.7l0-0.1L65.4,157.2z"/>
		</g>
	</g>
	<g>
		
			<path id="Layer0_0_MEMBER_0_MEMBER_0_MEMBER_0_1_STROKES" fill="none" stroke="#000000" stroke-linecap="round" stroke-linejoin="round" d="
			M51.8,212.3l13.7-55.1c-2-2.6-4.2-3.2-6.7-1.6l-13.7,55 M45,210.7l6.8,1.7 M69.8,217.1l0.1-0.2l-0.2,0.1L69.8,217.1l5.5,4.9
			l-0.4,1.8l-4.5,17.9l-0.5,1.9l-7.3,2.5l-42.5-10.6l-0.1,0.1l-0.2,0.8 M69.7,216.9l0.2,0 M68.8,220.8l0,0.2l6,2.9 M68.7,220.9
			l0.1,0.1l-5.2,20.7l0.3,0.1l6.4-0.1 M68.8,220.7L68.8,220.7l1-3.6 M63.6,241.8l-1,4.1 M63.7,241.8H64 M63.7,241.6l-0.1,0.1h0.1
			 M63.7,241.6L21.2,231l-0.1,0.2l-1,4.3 M51.7,212.4l18,4.5 M27.4,206.4L27.4,206.4L27.4,206.4L27.4,206.4l-1,3.8l42.3,10.6
			 M20,210.9l0.5-2l6.9-2.5 M26.8,206.1l0.6,0.2 M26.3,210.4l-6.3,0.4l-4.4,17.8l5.5,2.6 M26.4,210.4l0-0.3 M20,210.9h-0.3
			 M20,235.6l-4.9-4.8l0.6-2.2l-0.3-0.2 M21.2,231l5.1-20.6 M27.4,206.3l17.6,4.4"/>
	</g>
</g>
<g transform="matrix( 1, 0, 0, 1, 98.8,11.05) ">
	<g>
		<g id="Layer0_1_MEMBER_0_MEMBER_0_FILL">
			<path fill="#272B2C" d="M194.3,271h-4.4C192,271.3,193.5,271.3,194.3,271 M211.7,245.3c-0.1,0-0.2,0-0.3-0.1l-9-8.7
				c-0.3,1.1-0.6,2.2-0.8,3.3c-0.9,6.8,2.2,12.6,9.5,17.4c-7.2-4.8-10.4-10.6-9.5-17.4c0.2-1.1,0.4-2.2,0.8-3.3l-0.3-0.3l-6.6,5.2
				l-9.7,8l-8.5-7l-2.5-5.3l-6.1-0.3l0.6,1.2l9.8,26.3l6.4,6.8h0.9c-0.3-0.3-0.6-0.7-0.9-1c-1.3-1.6-2.5-3.2-3.5-4.8
				c-0.1-0.1-0.1-0.2-0.2-0.4c0-0.1-0.1-0.1-0.1-0.2c-0.9-1.4-1.7-2.8-2.4-4.3c-0.1-0.2-0.2-0.4-0.3-0.6c-1.3-2.9-2-5.8-2.3-8.6
				c0.2,2.8,1,5.6,2.3,8.6c0.1,0.2,0.2,0.4,0.3,0.6c0.7,1.4,1.5,2.8,2.4,4.3c0.1,0.1,0.1,0.1,0.1,0.2c0.1,0.1,0.1,0.2,0.2,0.4
				c1,1.6,2.2,3.1,3.5,4.8c0.3,0.4,0.6,0.7,0.9,1h3.3h4.4c0.6-0.2,0.7-0.7,0.3-1.3c-1.8-1.2-3.3-2.4-4.7-3.7
				c-1.3-1.2-2.4-2.5-3.4-3.9c-0.9-1.4-1.7-2.8-2.3-4.3c-1.1-2.9-1.6-6-1.3-9.4c-0.3,3.3,0.1,6.5,1.3,9.4c0.6,1.5,1.4,2.9,2.3,4.3
				c1,1.4,2.1,2.7,3.4,3.9c1.4,1.3,2.9,2.5,4.7,3.7c0.4,0.2,0.7,0.4,1.1,0.6v0h0c0.2,0.1,0.4,0.3,0.8,0.6l3.6-3.6l17.1-2.7l4.5-12
				l-1.7-16.2c-0.5,4.4-1.9,7.1-4.1,8.3c-0.2,0.2-0.5,0.3-0.8,0.4c-0.3,0.1-0.7,0.2-1,0.3c-0.2,0-0.3,0-0.5,0c-0.1,0-0.3,0-0.4,0
				C212.6,245.4,212.2,245.4,211.7,245.3 M121.4,283.3C121.5,283.3,121.5,283.3,121.4,283.3c0,0.2,0,0.3,0,0.4
				c0,7.6,1.8,14.1,5.4,19.4l8.9,4l0.1-0.1l5.4-7.3c-5.1-5.3-6.7-10.9-4.9-16.7c-2.6,0.4-5.2,0.4-8,0.2c2.8,0.2,5.4,0.2,8-0.2
				c0.1,0,0.1,0,0.1-0.1c3.1-0.5,6.1-1.4,8.9-2.9c-4.8-3.1-10.6-6-17.6-8.6l-6.5,2.4l0.4,4.5C121.5,280.2,121.5,281.8,121.4,283.3
				 M105.3,279c-6.8-2.4-12.5-7.2-17.3-14.3l-3.3,3.6l-9.5,26.5l-6.4,4.1l0.3,8.7c-4.7,21-3.5,32.8,3.6,35.4l10.8,1.5l5.6-12.8
				l-2.1-17.4l5.3-8l-0.5-9.1L105.3,279 M239.8,157.4l-4.6,3.3l-5.4,5.3l4.6,5l0.5-0.2l7.4-8.8l-7.4,8.8l8.9-3.4l0.9-0.9l2.4-3.3
				l3.6-3l-5.4-6.9l0.3,4.8l-0.5,0.6l-0.2,0.1L239.8,157.4 M200.8,82.6c-0.6,0.1-1.1,0.2-1.7,0.3l0.2,1.8c2.2,1.3,4.5,1.3,6.8,0
				l0-3.9C204.4,81.5,202.7,82.2,200.8,82.6l0.1,0.5L200.8,82.6 M195.6,83.8l3.7,0.8l-0.2-1.8c-3.6,0.4-7.5-0.1-11.8-1.5
				c-0.1,0-0.2,0-0.3,0l-2,1.3l1.4,2.6l5.7,0.4L195.6,83.8z"/>
			<path fill="#433938" d="M158.4,178.9l-3.1,0.6l1.3-3.3c-1.8-0.2-3.7-0.5-5.5-0.9l-0.9,2.9l0.9-2.9c-6.4-1.3-12.6-3.4-18.7-6.3
				c2.3,6.1,5,12,8.1,17.8c1.5,2.9,3.2,5.7,4.9,8.5c0,0.1,0,0.1,0.1,0.1l9.5-2.9l-0.6-4.8l5.1-5.4l1.7-5.8c-0.6-0.1-1.2-0.1-1.8-0.1
				L158.4,178.9l1.1-0.3L158.4,178.9l-0.4,0.9L158.4,178.9 M161.1,165.1c-2.1-0.4-4.2-0.8-6.3-1.4c-0.7,0.4-1.3,0.8-1.9,1.3
				c-3.4,2.8-4,6.2-1.8,10.4c1.8,0.4,3.6,0.7,5.5,0.9L161.1,165.1 M151.5,162.8c-0.1,0-0.2-0.1-0.3-0.1c-0.7-0.2-1.4-0.5-2.1-0.8
				H149c-3.3-1.2-6.5-2.6-9.6-4.3h0v0c-0.4-0.2-0.8-0.4-1.2-0.6l-0.1-0.2l-4.9,2.3l-3.3,2.7c0.8,2.4,1.6,4.9,2.5,7.3
				c6.1,2.9,12.3,4.9,18.7,6.3c-2.2-4.1-1.6-7.6,1.8-10.4c0.5-0.4,1.2-0.8,1.9-1.3C153.7,163.4,152.6,163.1,151.5,162.8 M145.1,89.8
				l-0.3,0.2l-6.5,66.5v0.3l-0.1,0.1l0.1,0.2c0.4,0.2,0.8,0.4,1.2,0.6v0h0c3.1,1.6,6.3,3.1,9.6,4.3h0.1l0.3-0.7l0.6-2.1
				c-1.7-0.5-3.1-1.4-4-2.8c-0.2-0.2-0.3-0.5-0.5-0.8c-0.3-0.5-0.5-1-0.7-1.6c-0.2-0.6-0.3-1.3-0.4-1.9c0.2-0.7,0.5-1.3,0.8-1.8
				c0.8-1.5,1.7-2.2,2.8-2c0.2,0,0.4,0.1,0.6,0.1c1.8-0.1,3.2,0.2,4.3,0.9l0.5-1.8l-0.6-0.2l-2.9-14.8v-0.9l4.5-7.7
				c-4.3-1.1-6.2-3.9-5.5-8.5c0.2-1.5,0.7-3.2,1.6-5.2l-0.6-0.6v-0.1c1.4-1.7,3.1-2.5,5.3-2.4h-0.1L145.1,89.8 M145.4,124.3
				l-0.8,20.8l-4.9,11.9l4.9-11.9L145.4,124.3 M171.5,181.6l-3.4,0.2l-5,21.6l6.3-1.1l10.2,0.9l7.2-10.2l-7.4-17.1
				c-2.6,0.3-5.2,0.6-7.8,0.8L171.5,181.6 M165.5,176.9L165.5,176.9c-1,0-2,0-3-0.1l-0.1,7.1l-5,5.3v6l-10.5,2.5
				c0.6,1,1.2,1.9,1.8,2.9l0.8,1.4l7-0.8h0.1l1.6,3.2c0.8-0.8,1.4-1.6,1.9-2.4c0.9-1.5,1.7-3.1,2.4-4.9c0.2-0.5,0.3-0.9,0.5-1.4
				c0.1-0.2,0.1-0.4,0.2-0.7c1.1-3.3,1.8-6.9,2.1-10.9c0.1-1,0.1-2,0.1-3.1C165.5,179.7,165.5,178.4,165.5,176.9
				C165.5,176.9,165.5,176.9,165.5,176.9 M169.1,170.4l-6.9-0.2l-2.8,6.4c0.6,0,1.1,0.1,1.8,0.1c0.4,0,0.8,0,1.3,0.1h0.1
				c1,0.1,2,0.1,2.9,0.1h0.1c1,0,1.9,0,2.9,0L169.1,170.4 M183.5,172.8v-0.1c-0.1-0.1-0.2-0.2-0.4-0.3c-0.1-0.1-0.2-0.1-0.3-0.2
				c-0.1-0.1-0.1-0.1-0.2-0.2l-0.1-0.2l0.3-4.3l-2.4-0.6l-1.6-0.4c-2.4,0.1-4.8,0-7.1-0.1v0.8l-0.2,9.5c2.5-0.2,5.1-0.4,7.8-0.8
				c0.9-0.2,1.8-0.3,2.8-0.4c0.9-0.2,1.8-0.4,2.9-0.8L183.5,172.8 M193.2,122.8c0-0.2-0.1-0.4-0.1-0.6c0.1-0.5,0.2-1,0.5-1.5
				l-1.1-1.5l0.6-0.5c-10.5,2.9-18.9,2.4-25.3-1.5c0.5,2.1,0,4.1-1.4,5.9c-2.8,2.1-6.1,2.6-9.9,1.5l-0.2,0.3l-3.7,6.9l1.3,15.1v0.2
				l0.1,1l-0.1-1v-0.2l-0.8,0.5l-0.5,1.8c0.3,0.2,0.5,0.4,0.7,0.6l0.2-1.1l-0.2,1.1c0.8,0.7,1.4,1.7,1.8,3c0.1,0.3,0.1,0.7,0.2,1.1
				c0.5,2.2-0.5,4.1-2.9,5.6c-0.2,0-0.4,0-0.6,0l-0.6,3.3c0.1,0,0.2,0.1,0.3,0.1c1.1,0.4,2.2,0.7,3.3,1l0.2-0.8l-0.2,0.8
				c2,0.6,4.1,1,6.3,1.4c3.5,0.7,7.1,1.1,10.7,1.3h0.1c2.3,0.1,4.7,0.2,7.1,0.1l3.2-4.7l-1.2-1.4l0.8-3.1l-0.8,3.1
				c1.1-3.4,3.2-5.4,6.3-6.1l10.4-15.3l0.3-11.7C195.7,127.1,194.2,125.6,193.2,122.8 M175.1,138.7l17.4,0.9l-30,13.8l30-13.8
				L175.1,138.7 M181.7,135.7l-21,7.2L181.7,135.7z"/>
			<path fill="#EBF151" d="M151.8,159.4c-0.7,0-1.3-0.1-1.9-0.3l-0.6,2.1l-0.3,0.7c0.7,0.3,1.4,0.5,2.1,0.8L151.8,159.4
				 M154.4,123.9c-0.1,0-0.2-0.1-0.3-0.1l-4.5,7.7v0.9l2.9,14.8l0.6,0.2l0.8-0.5l-1.3-15.1l3.7-6.9L154.4,123.9 M162.5,176.8
				L162.5,176.8c-0.5,0-0.9,0-1.3-0.1l-1.7,5.8l-5.1,5.4l0.6,4.8l-9.5,2.9c0.5,0.7,0.9,1.4,1.4,2.1l10.5-2.5v-6l5-5.3L162.5,176.8
				 M182.1,175.5c-0.9,0.1-1.9,0.3-2.8,0.4l7.4,17.1l-7.2,10.2l-10.2-0.9l-6.3,1.1l5-21.6l-1.4,0.1l1.7-5c-1,0-1.9,0-2.9,0
				c0,0,0,0.1,0,0.1c0,1.5,0,2.8-0.1,4c0,1.1-0.1,2.1-0.1,3.1c-0.3,4-1,7.6-2.1,10.9c-0.1,0.2-0.1,0.5-0.2,0.7
				c-0.2,0.5-0.3,0.9-0.5,1.4c-0.7,1.7-1.5,3.4-2.4,4.9c-0.5,0.8-1.1,1.6-1.9,2.4l0.9,1.6l24.7-1.1l0.1-0.2l5.9-10.8L182.1,175.5
				 M171.8,166.4L171.8,166.4c-3.7-0.2-7.3-0.6-10.8-1.3l-4.4,11.1l-1.3,3.3l3.1-0.6l1.1-2.3l2.8-6.4l6.9,0.2l-0.8,6.5l-1.7,5
				l1.4-0.1l3.4-0.2l0.1-4.9l0.2-9.5V166.4 M200.4,127.1c-0.9,0.2-1.7,0.3-2.5,0.3l-0.3,11.7l-10.4,15.3c0.4-0.1,0.8-0.1,1.2-0.1
				c0.3,0,0.6-0.1,0.9-0.1v0.7l11.9-16.6L200.4,127.1 M172.7,107.3C172.7,107.3,172.7,107.4,172.7,107.3c2.3,0.9,3.5,0.3,3.9-1.8
				C176.2,107.6,174.9,108.2,172.7,107.3c0.1,0.1,0.1,0.1,0.1,0.1c1.1,1.9,2.4,2.9,4.1,3.1l1.7-3.7l-2.6-4.3
				c-0.6,1.6-2.1,2.3-4.3,2.3c0.3,0.9,0.6,1.7,1,2.4C172.6,107.2,172.7,107.3,172.7,107.3 M206.1,80.7l0,3.9v5.9l-3,4.3l-0.2,2.3
				h0.8l0.4,5.2l3.2-3.3l0.1-4.2l-0.1,4.2l-3.2,3.3l-1.8,3.4l3.3-0.7l3-5.3l2.4,2.8c1.5-1,1.9-3,1.1-5.9l-2.6-5.4l0.4-6.7l-0.1-0.2
				l-2.3-4.5h-0.1C207.1,80.1,206.6,80.4,206.1,80.7 M184.3,83l0.8-0.4l2-1.3c-1.4-0.4-2.8-1-4.2-1.7l-2.1,2.9L184.3,83 M180.5,82.9
				l0.3-0.3l2.1-2.9c-1.6-0.7-3.2-1.4-4.8-2.3c-2,3.8-3.2,8.1-3.8,13.1c-0.1,1.3-0.2,2.7-0.3,4l0.2,5.2l1.7,2.9l2.6,4.3l-1.7,3.7
				l-0.2,1.1l0.2-1.1c-1.6-0.1-3-1.1-4.1-3.1c0,0,0,0,0,0c0,0,0-0.1-0.1-0.1c0,0-0.1-0.1-0.1-0.1c-0.4-0.7-0.7-1.5-1-2.4
				c-0.2-0.5-0.3-1.1-0.5-1.8c-0.3-1-0.5-2.1-0.7-3.4l0,0c-0.1-0.7-0.2-1.4-0.3-2.2l0,0l-2.4-1.3l2.4,1.3l1.4-1l-0.6-5.3l0.6,5.3
				l-1.4,1c0.1,0.8,0.2,1.5,0.3,2.2l0,0c0.2,1.3,0.4,2.4,0.7,3.4c0.2,0.7,0.3,1.3,0.5,1.8c2.3,0.1,3.7-0.7,4.3-2.3l-1.7-2.9
				l-3.1,0.8l3.1-0.8l-0.4-0.7l-0.3-5.1l-1.8-2.4l0.8-4.4c-0.2-0.1-0.3-0.1-0.5-0.2l-1.3,1.3l-3.4,0.8l-0.9,6.6l0.6,0.3l1.5-1.1
				l-0.5-2.7l3.1-2.8l-3.1,2.8l0.5,2.7l-1.5,1.1l-2.1,1.6v0.9l4.4,2.6l2.1,8.1c1.7,4.1,3.7,5.6,5.8,4.3l2.8-6.4l-4.2-7.7l0.6-6
				l0.2-0.5L180.5,82.9 M165.1,73.4l-0.3-0.2l-2.8,6.3l2.2,2.5l1.4,1.5l-0.1,4.3l-0.3,9.1l1.4-1.4l0.9-6.6l3.4-0.8l1.3-1.3
				c-2.5-1-3.3-2.5-2.5-4.4l-1.6-0.1v-3.2l1.9,0.4L165.1,73.4z"/>
			<path fill="#7FA3C5" d="M148.4,148.3c-0.2-0.1-0.4-0.1-0.6-0.1c-1.1-0.2-2,0.5-2.8,2c-0.3,0.5-0.5,1.1-0.8,1.8
				c0.1,0.7,0.3,1.3,0.4,1.9c0.2,0.6,0.4,1.1,0.7,1.6c0.1,0.3,0.3,0.5,0.5,0.8c1,1.4,2.3,2.3,4,2.8c0.6,0.2,1.2,0.3,1.9,0.3
				c0.2,0,0.4,0,0.6,0c2.4-1.6,3.4-3.4,2.9-5.6c-0.1-0.4-0.1-0.7-0.2-1.1c-0.3-1.3-0.9-2.3-1.8-3c-0.2-0.2-0.4-0.4-0.7-0.6
				C151.5,148.5,150.1,148.2,148.4,148.3 M189.3,154c-0.3,0-0.6,0.1-0.9,0.1c-0.4,0-0.8,0.1-1.2,0.1c-3.1,0.7-5.2,2.7-6.3,6.1
				l1.2,1.4l0.5,0.6l-0.5-0.6l-3.2,4.7l1.6,0.4l3.4-4.7l-1.3,0.9l1.3-0.9c1.1,1,2.7-0.1,5-3.3h0.1l0.2-0.3c0,0,0.1-0.1,0.1-0.2
				l0.1-3.8V154 M162.6,109.9c-0.1,0-0.1-0.1-0.2-0.2c-1.3-0.8-2.5-1.4-3.7-1.8l-3.8-0.8c-2.1,0-3.9,0.8-5.3,2.4v0.1l0.6,0.6
				c-0.8,1.9-1.3,3.6-1.6,5.2c-0.7,4.6,1.1,7.4,5.5,8.5c0.1,0,0.2,0.1,0.3,0.1c0.1,0,0.1,0,0.3,0.1c0.6,0.2,1.2,0.4,1.8,0.6
				c3.8,1.1,7.1,0.6,9.9-1.5c1.4-1.9,1.9-3.9,1.4-5.9c-0.3-1.1-0.8-2.2-1.6-3.3c-0.7-1-1.6-2-2.6-3
				C163.3,110.5,163,110.3,162.6,109.9C162.7,110,162.6,109.9,162.6,109.9 M209.6,112l-0.4-0.3l-7.6,1.3c-0.1,0.1-0.3,0.2-0.4,0.3
				c-4,2.9-6.5,5.4-7.5,7.3c-0.3,0.6-0.4,1.1-0.5,1.5c0.1,0.2,0.1,0.4,0.1,0.6c1,2.9,2.5,4.4,4.7,4.6c0.8,0.1,1.6,0,2.5-0.3
				c1.1-0.3,2.4-0.9,3.7-1.7l5.3-3.2C212.7,118.8,212.8,115.4,209.6,112z"/>
			<path fill="#D70F11" d="M158.6,73.3l-8.4,0l-12.8-4.2l-14.9,5.1l-0.2,0.6l18.8-1.5l3.3,15.4l0.6,1.1l9.8,17.3h0.1l3.8,0.8
				l3.7,0.8c-3.7-9.8-5-20.9-4-33.1c0-0.1,0-0.1,0-0.3c0-0.4,0.1-0.8,0.1-1.3C158.5,73.9,158.6,73.6,158.6,73.3 M119.9,82.6v15.6
				l0.3,2.8l0,0l3.8,32.3c0.2,2.4,0.5,4.7,0.8,7c1.1,7,2.6,13.9,4.7,20.6l3.6-1.8l3.4-2.8l-3.4,2.8l4.9-2.3l-0.3-0.8V156l-2.7-9.5
				l4.7-6.9l-4.1-12.9l4.1,12.9l-4.7,6.9l2.7,9.5v0.1l0.3,0.8l0.1-0.1v-0.3l6.5-66.5l0.3-0.2l-0.6-1.1l-3.3-15.4l-18.8,1.5
				L119.9,82.6 M119.9,98.2V82.6l2.5-7.8l0.2-0.6l-0.9,0.3h-3.9l-3.9,13.8l2,12.5c0.2,0.2,0.4,0.4,0.4,0.6v0.1
				c0.1,1.4,0.2,2.9,0.3,4.3c0.9,13,2.2,24.7,3.8,35.2c0,0,0,0.1,0,0.1l0,0c3.2,21.4,7.8,37.7,13.8,48.9c0,0.1,0,0.1,0,0.1
				c0.1,0.1,0.1,0.1,0.2,0.2l2.3-1.3l-2.3,1.3c0.1,0.4,0.2,0.8,0.3,1.2c4.4,19.7,12.8,38.1,24.9,55.1
				c-12.2-17.1-20.5-35.5-24.9-55.1c-0.1-0.4-0.2-0.8-0.3-1.2c0,0,0,0,0,0c0-0.1-0.1-0.1-0.2-0.2c0,0,0-0.1,0-0.1
				c-5.9-11.2-10.5-27.5-13.8-48.9l0,0c0,0,0-0.1,0-0.1c-1.6-10.5-2.8-22.2-3.8-35.2c-0.1-1.4-0.2-2.8-0.3-4.3l-0.4-0.7l-2-12.5
				l-4.8,17.9l-6.9,37.8l0,0l0.3,0.1l0,0l-2.1,19.8l-9,13.5l-2.7,18l-0.1,0.4l-0.2-0.1l-7.2,8.3l0.8,0.8c-3.5,5.2-5,10.6-4.5,16.2
				l0.6-0.9l-0.6,0.9c0.1,0.9,0.2,1.8,0.3,2.7c0.6,3.1,1.8,6.2,3.6,9.3c-1.8-3.1-3-6.3-3.6-9.3c-0.2-0.9-0.3-1.8-0.3-2.7l-2.1,2.7
				c0,0.1,0,0.2,0,0.3c0.3,6.5,1.4,12,3.4,16.6c0,0,0,0,0,0.1c0.9,2.1,2,3.9,3.3,5.6c-1.3-1.7-2.3-3.5-3.3-5.6c0,0,0,0,0-0.1
				l-0.7,0.3c2.5,9.7,5.8,17.7,9.9,23.9c0,0,0,0.1,0,0.1c4.7,7.1,10.5,11.8,17.3,14.3c2.6,0.9,5.3,1.5,8.1,1.8l6.2-6.1l7.8-3.3
				l0.3,0.3c6.9,2.6,12.8,5.5,17.6,8.6c4.8,3.1,8.5,6.5,11.2,10.1l-0.1,0.6l0,0l-0.9,9.2c1.8-2.7,3.3-5.5,4.5-8.5c0,0,0-0.1,0.1-0.1
				c5.1-12.4,5.2-27.4,0.3-44.8c4.9,17.4,4.7,32.3-0.3,44.8c0,0,0,0.1-0.1,0.1c-1.2,3-2.7,5.8-4.5,8.5c0,0,0,0-0.1,0.1l-0.1,0.3
				l-0.1,0c-0.4,0.6-0.7,1.1-1.1,1.6c-1.2,1.6-2.5,3.2-3.9,4.7c2.3-0.7,4.6-1.6,6.8-2.5c0.1,0,0.2-0.1,0.4-0.1
				c12.4-5.3,21.9-13.3,28.3-24l-0.7-0.4l-5.8-15.5l-9.8-26.3l-0.6-1.2l-19.3-34.9l-0.8-1.4c-0.6-0.9-1.2-1.9-1.8-2.9l-1.8,0.5
				l1.8-0.5c-0.4-0.7-0.9-1.4-1.4-2.1c0,0,0-0.1-0.1-0.1c-1.7-2.8-3.4-5.6-4.9-8.5c-3.1-5.8-5.8-11.8-8.1-17.8
				c-0.9-2.4-1.7-4.8-2.5-7.3l-1.1,0.8l1.1-0.8c-0.1-0.3-0.2-0.6-0.3-1l-1.1,0.6l1.1-0.6c-2.1-6.7-3.6-13.6-4.7-20.6
				c-0.3-2.3-0.6-4.6-0.8-7l-3.8-32.3l0,0L119.9,98.2 M129.2,222.7l4.5-0.3L129.2,222.7l-9,10.8L129.2,222.7 M132.2,226.6
				c-0.1,15.4-4,27.6-11.7,36.6C128.2,254.2,132.1,242,132.2,226.6 M108.2,137.2L95,207.4L108.2,137.2 M116,175.6l-5.4,76.5
				L116,175.6 M183.5,172.7v0.1l1.6,1.9l8.7,10.7c-2.6-3.9-5.4-7.6-8.5-10.9h-0.1C184.7,173.9,184.1,173.3,183.5,172.7 M209.3,111.8
				h-0.2l0.4,0.3C209.5,112,209.5,111.9,209.3,111.8C209.4,111.8,209.3,111.8,209.3,111.8 M209.9,84.3l0.1,0.2l-0.4,6.7l2.6,5.4
				c0.8,2.9,0.4,4.9-1.1,5.9l0.6,0.7l-0.6-0.7l-2.4-2.8l-3,5.3l-3.3,0.7l-0.5,0.1l0.5-0.1l1.8-3.4l-0.4-5.2h-0.8l-0.6,3.7l-2.9,4.6
				l-8.9,1.1l2.4,11.4l0.6,0.7l6.3-5.8l8.1-1.5l1.3,0.7h0.2c0,0,0.1,0.1,0.1,0.1c0.1,0.1,0.1,0.1,0.2,0.2l6.3,3.3l12.7-11.7l2.6-2.3
				l-5.2-11l-7.9-7.4L209.9,84.3 M165.5,83.5l-1.4-1.5c-1.9-1.3-3.6-3.1-5.1-5.4c-0.2-0.3-0.4-0.7-0.6-1c-1,12.2,0.3,23.3,4,33.1
				l0.9,0.3l-0.9-0.3c0,0.1,0,0.1,0,0.2c0.1,0.1,0.1,0.3,0.2,0.3l3.8,3.9c0.1-0.6,0.2-1.2,0.3-1.8c-1.2-4.6-1.8-9.1-1.9-13.5
				c0-0.2,0-0.3,0-0.5c0-3.2,0.2-6.3,0.6-9.4L165.5,83.5 M337.4,203.5c-3.7,0-7.3-0.1-10.9-0.3c-2.7-0.1-5.4-0.2-8-0.4
				c-0.9,0-1.8-0.1-2.8-0.2c-37.8-2.9-64.5-13-80-30.3l-1.3-1.4l-3.9,1.4l-0.1,0.1l-2.7-4.5v0.1l-4.6,2.3l-1.6-1.6l-7.2,0.4
				l-3.5-6.1l-3.3-2.7l0.3-4.1l-0.2-0.1l-0.7-0.6l5.9-7.9l-0.1-0.2l0.3-0.3c-0.6-1.4-1-2.9-1.3-4.4c-0.4-2.8-0.3-5.9,0.5-9.3
				l-2.7-2.7l-0.2,0.3l-2.3,3.4v0.2l-4.1,10.1l-0.5-0.2l-2.1,2.2l-15.8,19l-1.3,1.9l-0.2-0.1l0.5,5.3c0.6,0.6,1.2,1.2,1.7,1.8h0.1
				c3.1,3.3,5.9,6.9,8.5,10.9l2.3,2.8c1.5,3,2.8,5.9,4,8.8l1,2.3c0.5,1.3,1,2.5,1.4,3.7l1.8,5.2c1.7,5.1,3.1,10.2,4.1,15l0.7-0.1
				c12.1-4.6,27.5-3.6,46.1,2.8l3.4,2.6c17,4.3,28.9,0.8,35.6-10.4c0,0,0.1-0.1,0.1-0.1l0.3-0.1l5.1-2l5.1,4.5h4.5l5.6-8.1l11.4-3.6
				c-1.9,0.1-4-0.2-6.1-0.7c-0.6-0.1-1.3-0.3-2-0.5c0.7,0.2,1.3,0.4,2,0.5c2.2,0.5,4.2,0.7,6.1,0.7c0.2,0,0.4,0,0.6-0.1
				c0.1,0,0.2,0,0.3-0.1C331.2,208.1,334.6,206.4,337.4,203.5 M198.8,164.5l-3.9,2.7l6.9,13.2l-6.9-13.2L198.8,164.5l39.9,42.3
				L198.8,164.5 M247.3,197.6c-1.6-1.2-3.2-2.4-4.7-3.7C244.1,195.2,245.7,196.4,247.3,197.6c11.4,8.1,25.1,13.6,41.2,16.4
				C272.4,211.2,258.7,205.7,247.3,197.6 M241.7,194.2l17.1,13.2L241.7,194.2z"/>
			<path fill="#333132" d="M229.8,165.9l-2,2l2.7,4.5l0.1-0.1l3.9-1.4L229.8,165.9 M220,137.8l-1.1,1.4l0,0.1l-6.1,8.3l-5.9,7.9
				l0.7,0.6l0.2,0.1l4.3,3.2l1.1-0.9l11.8-9.8l-11.8,9.8l1,5.2l5.7,1.8l-5.7-1.8l-1-5.2l-1.1,0.9l-4.3-3.2l-0.3,4.1l3.3,2.7l3.5,6.1
				l7.2-0.4l-1.9-1.7l-0.7-0.1l0.7,0.1l9.5-12.4l-9.5,12.4l1.9,1.7l1.6,1.6l4.6-2.3v-0.1l2-2l5.4-5.3l4.6-3.3l-2.1-4.2l-0.1-3.7
				l-2.6-0.5h-0.1l-0.3-6.4l-4.3-0.7L224,139l6.3,2.9l4.3,0.7l0.3,6.4h0.1l2.6,0.5l0.1,3.7l2.1,4.2l5.2,1.3l0.2-0.1l0.5-0.6
				l-0.3-4.8l5.4,6.9l-3.6,3l-2.4,3.3l-0.9,0.9l-1.2,1.2l0.6,5.1l7.2,3.7l-2.4-4.6l5.4,1.2c5.5-1.1,8.2-5.3,8.3-12.4
				c0-0.1,0-0.1,0-0.2c0-0.1,0-0.2,0-0.3c0-0.9-0.1-1.8-0.1-2.8c1.9-8.8-1.7-14.4-10.9-16.6c-0.4-0.1-0.7-0.2-1.1-0.3l-7.1-1.5
				l-0.2,0.1l-1.4,1.2l-1.1,0.6l2.3,1.7l0,0l12.1,8.8l2,8.7l-2-8.7l-12.1-8.8l-0.6,0.8l0.6-0.8l-2.3-1.7l-0.9,0.6l-1.6-0.6l-9.9-3.3
				v-0.3L220,137.8z"/>
			<path fill="#31536C" d="M196.4,189.6c0,0-0.1-0.1-0.1-0.1c-0.8-1.4-1.6-2.8-2.5-4.1l-8.7-10.7c-1.1,0.4-2.1,0.6-2.9,0.8l7.6,18.3
				l-5.9,10.8l-0.1,0.2l-24.7,1.1l15.8,31.2l2.5,5.3l8.5,7l9.7-8c0.3-0.6,0.6-1.3,0.7-1.9c0.1-0.7,0.2-1.4,0.1-2.2
				c-0.4-4.5-4.5-10.4-12.3-17.6c7.8,7.2,11.9,13,12.3,17.6c0.1,0.8,0,1.5-0.1,2.2c-0.1,0.7-0.4,1.3-0.7,1.9l6.6-5.2l0.3,0.3l9,8.7
				c0.1,0,0.2,0,0.3,0.1c0.5,0.1,0.9,0.2,1.4,0.1c0.2,0,0.3,0,0.4,0c0.2,0,0.3,0,0.5,0c0.3,0,0.7-0.1,1-0.3c0.3-0.1,0.6-0.2,0.8-0.4
				c2.2-1.1,3.6-3.9,4.1-8.3l-0.1-0.9l-7,3.8l0.4,0.7l-0.4-0.7l-3.9-6.6l-0.1-0.1v-0.1l-10.3-17.4l10.3,17.4l0.6-0.3
				c-1.1-8.8-2.8-16.8-5.1-24.2l-1.8-5.2c-0.5-1.2-0.9-2.4-1.4-3.7l-1-2.3c-1-2.3-2.1-4.4-3.3-6.5c-0.1-0.1-0.2-0.3-0.3-0.5
				c0-0.1-0.1-0.1-0.1-0.1C196.4,189.7,196.4,189.7,196.4,189.6z"/>
			<path fill="#65B8EE" d="M189.1,159.6l-0.3-0.8c-2.3,3.2-3.9,4.3-5,3.3l-3.4,4.7l2.4,0.6h0.1l0.2,0.1l1.3-1.9L189.1,159.6
				 M209.1,111.8l-1.3-0.7l-8.1,1.5l-6.3,5.8l-0.3,0.3l-0.6,0.5l1.1,1.5c1-1.9,3.5-4.3,7.5-7.3c0.2-0.1,0.3-0.2,0.4-0.3L209.1,111.8
				 M233.6,120.4l-1.6-5.7l-2.9-10.6l-0.6-0.6l-12.7,11.7l-6.3-3.3c3.3,3.4,3.2,6.8-0.3,10.2l-5.3,3.2c-1.3,0.8-2.6,1.4-3.7,1.7
				l0.8,11l-11.9,16.6l-0.1,3.8l1.7-2.4l9.4-9.4l2.1-2.2l0.5,0.2l4.1-10.1v-0.2l0.2-0.8l1.9-9l-1.9,9l2.1-2.6l0.2-0.3l7.7-9.4
				l-7.7,9.4l2.7,2.7l5.9,5.9l0.9-0.1h0l1.1-1.4l0.4-0.6l-0.4,0.6l7.3,0.4v0.3l9.9,3.3l3.4-1.3c-0.6-3.1-1.9-5.7-3.6-7.9
				c-1.9-2.4-4.4-4.2-7.6-5.6c3.2,1.3,5.7,3.2,7.6,5.6c1.8,2.2,3,4.8,3.6,7.9v0.1l1.6-0.6l0.2-0.1l7.1,1.5l0.6-0.4l-14.9-21.6
				L233.6,120.4 M225.5,120.4l-7.8,0.9L225.5,120.4z"/>
			<path fill="#FFF0EB" d="M165.1,98.3v0.3c1.4,1.7,2.1,4.5,2,8.5c0,1.2-0.1,2.6-0.4,4.1c-0.1,0.6-0.2,1.2-0.3,1.8
				c0,0.3-0.1,0.5-0.1,0.8c0.8,1.1,1.3,2.2,1.6,3.3c6.4,3.9,14.8,4.4,25.3,1.5l0.3-0.3l-0.6-0.7l-2.4-11.4l-0.2-0.8h-0.1l-2.5,8
				l2.5-8l-10.8-6.6l-2.8-6.2l-0.2,0.5l-0.6,6l4.2,7.7l-2.8,6.4l0.5,0.3l-0.5-0.3c-2.1,1.3-4.1-0.2-5.8-4.3l-2.1-8.1L165.1,98.3
				 M180.8,82.6l-0.3,0.3l-3.9,9.8l2.8,6.2l10.8,6.6v-0.1l0.2-0.5l-0.2,0.5l0.1,0.1l0.2,0.8l8.9-1.1l2.9-4.6l0.6-3.7l0.2-2.3l3-4.3
				v-5.9c-2.3,1.3-4.5,1.3-6.8,0l1,8.3l-1.1,0.6l-1.7-1l-1.2,0.7l-2.2-0.9l0.4-1.2l-0.4,1.2l2.2,0.9l1.2-0.7l-1-0.8l1,0.8l1.7,1
				l1.1-0.6l-1-8.3l-3.7-0.8l-3.4,1.8l-5.7-0.4l-1.4-2.6l-0.8,0.4L180.8,82.6 M187.1,97.3l-0.6-4.1l-2.6-2.6l2.6,2.6L187.1,97.3
				 M198.9,95.9l-4.9,0.6l-3.6,1.2l3.6-1.2L198.9,95.9 M200.4,97.4l-1.2-1L200.4,97.4 M193.1,100.6l3.9-0.9L193.1,100.6z"/>
			<path fill="#A0CDEC" d="M162.6,63.3c0.3,2.6,1.1,4.9,2.4,7c1.3,2.2,3.2,4.1,5.6,5.8l-5.5-2.8l4.9,6.2l-1.9-0.4v3.2l1.6,0.1
				c-0.8,1.9,0,3.4,2.5,4.4c0.2,0.1,0.3,0.1,0.5,0.2l0.7-4.3l-0.7,4.3l-0.8,4.4l1.8,2.4l0.5,0.6c0-1.4,0.1-2.7,0.3-4
				c0.5-5,1.8-9.3,3.8-13.1c-0.1,0-0.2-0.1-0.3-0.1l0.4-0.3l2.4-1.8l0.1-0.2l-1.4-2.1l-0.4-4.7l-4.1-5.1l0.1-0.5
				c-0.3,0.2-0.7,0.3-1.1,0.5c0.4-0.2,0.7-0.4,1.1-0.5c-3.6-6.3-6.6-14.5-9.1-24.6c-3,4-2.5,11.1,1.6,21.3l5.3,8.8l-5.3-8.8
				l-5.4-9.2c0.1,6.6,2,12.9,5.6,18.8l4,3l-4-3L162.6,63.3z"/>
			<path fill="#3C3CA0" d="M201.4,61.5c-0.1-0.1-0.2-0.1-0.3-0.2c-3.4-2.1-7-3.1-11.1-3.1l5.6,7.6l-5.6-7.6c-0.9,0-1.8,0-2.8,0.1
				c-3.9,0.5-8,1.9-12.4,4.2l-0.1,0.5l4.1,5.1l0.4,4.7l1.4,2.1l-0.1,0.2c5.8,3.1,11.7,4.9,17.9,5.6l-1.9-3.2l-4.7-0.4l-4.8-7.7
				l4.8,7.7l4.7,0.4l1.9,3.2c-6.1-0.6-12.1-2.5-17.9-5.6l-2.4,1.8c-0.1,0.1-0.1,0.3-0.2,0.4c1.6,0.9,3.2,1.7,4.8,2.3
				c1.4,0.7,2.8,1.2,4.2,1.7c0.1,0,0.2,0,0.3,0c4.3,1.4,8.3,1.9,11.8,1.5c0.5-0.1,1.1-0.2,1.7-0.3c-0.1-5-1-8.6-2.6-10.9
				c1.6,2.3,2.5,5.9,2.6,10.9c1.9-0.4,3.6-1,5.3-1.9c0.5-0.2,0.9-0.5,1.4-0.8h0.1c0.8-0.5,1.6-1,2.3-1.7c-0.6-4-1.8-7.6-3.6-10.6
				c0,0,0-0.1,0-0.1c-1.3-2.2-2.9-4.2-4.9-5.9C201.4,61.5,201.4,61.5,201.4,61.5 M205.1,67.8v5.1l-2.7,4.8l0.3,1.8l5.3-3.1l-5.3,3.1
				l-0.3-1.8l2.7-4.8V67.8z"/>
		</g>
	</g>
	<g>
		
			<path id="Layer0_1_MEMBER_0_MEMBER_0_1_STROKES" fill="none" stroke="#000000" stroke-linecap="round" stroke-linejoin="round" d="
			M234.4,170.9l1.4,1.5c15.5,17.2,42.2,27.3,80,30.3c0.9,0.1,1.8,0.1,2.8,0.2c2.6,0.2,5.3,0.3,8,0.5c3.5,0.1,7.1,0.2,10.9,0.3
			c-2.7,2.9-6.1,4.6-10.1,5c-0.1,0-0.2,0-0.3,0c-0.2,0-0.4,0-0.6,0.1l-11.4,3.6l-5.6,8.1h-4.5l-5.1-4.5l-5.1,2l-0.3,0.1
			c0,0,0,0.1-0.1,0.1c-6.7,11.3-18.6,14.7-35.6,10.4l-3.4-2.6c-18.6-6.4-33.9-7.4-46.1-2.8 M208.3,223.1c-1-4.9-2.3-9.9-4.1-15
			c2.3,7.4,4,15.4,5.1,24.2 M208.8,232.6L208.8,232.6l0.1,0.2l3.9,6.7l7-3.8l0.1,0.9l1.7,16.2l-4.5,12l-17.1,2.7l-3.6,3.6
			c-0.3-0.3-0.6-0.5-0.8-0.6h0l0,0c-0.3-0.2-0.7-0.4-1-0.7 M195.2,271h-0.9 M211.1,33.4c-3.5,2.9-5.8,6.9-6.7,12
			c-0.4,2.2-0.5,4.6-0.4,7.3 M165.2,36.5l0.5,1.4c2.5,10.2,5.5,18.4,9.1,24.6c4.4-2.3,8.6-3.7,12.5-4.2l1-2.6l1.8,2.5
			c4,0,7.7,1,11.1,3.1c0.1,0,0.2,0.1,0.3,0.2l0-0.7l-0.6-4.1l2-2l-0.3-5.3l2-4 M201.4,60.8l0.1,0.8c1.8,1.2,3.5,2.6,5.1,4.4
			c-0.7-4.3-0.9-8.6-0.5-12.9c0.6-6.4,2.5-12.8,5.6-19.3 M201.4,61.5c0,0,0.1,0.1,0.1,0.1c1.9,1.7,3.6,3.7,4.9,5.9l0.3-1.5
			 M187.3,58.4c0.9-0.1,1.9-0.2,2.8-0.2l5.6,7.6 M165.1,73.4l5.5,2.8c-2.4-1.7-4.2-3.7-5.5-5.8c-1.3-2.1-2.1-4.4-2.4-7l4.8,5.5
			c-3.6-5.9-5.5-12.1-5.6-18.8l-0.3-0.4 M167.4,68.8l4,3 M165,72.8l-0.2,0.5l-2.8,6.3l2.2,2.5l1.3,1.5l-0.1,4.3l-0.3,9.1l1.4-1.4
			l0.9-6.6l3.4-0.8l1.3-1.3c-2.5-1-3.3-2.5-2.5-4.4l-1.6-0.1v-3.2l1.9,0.4l-4.9-6.2 M173.8,63.1c0.4-0.2,0.7-0.4,1.1-0.5l0,0.5
			l4.1,5.1l0.4,4.7l1.4,2.1l-0.1,0.2c5.8,3.1,11.7,4.9,17.9,5.6l-1.9-3.2l-4.7-0.4l-4.8-7.7 M167.3,59.3l5.3,8.8 M180.8,82.6
			l-0.3,0.3l-3.9,9.8l2.8,6.2l10.8,6.6v-0.1l0.2-0.5 M180.6,75.1l-2.4,1.8c-0.1,0.1-0.1,0.3-0.2,0.4c1.6,0.9,3.2,1.7,4.8,2.4
			c1.4,0.6,2.8,1.2,4.2,1.6c0.1,0,0.2,0.1,0.3,0.1c4.3,1.4,8.3,1.8,11.8,1.4c0.5-0.1,1.1-0.2,1.7-0.3c-0.1-5-1-8.6-2.6-10.9
			 M178.3,76.9l-0.4,0.3c0.1,0,0.1,0.1,0.3,0.1c-2,3.8-3.2,8.1-3.8,13.1c-0.1,1.3-0.2,2.6-0.3,4 M174.3,99.6l1.7,2.9l2.6,4.3
			l-1.7,3.7l-0.2,1.1 M171.2,89.2l-3.1,2.8l0.5,2.7l-1.5,1.1l-2.1,1.6l0,0.9l4.4,2.6l2.1,8.1c1.7,4.1,3.7,5.6,5.8,4.3l2.8-6.3
			l-4.2-7.7l0.6-6l0.2-0.5 M165.1,98.3v0.3c1.4,1.7,2.1,4.5,2,8.5c0,1.2-0.1,2.6-0.4,4.1c-0.1,0.6-0.2,1.2-0.3,1.8
			c0,0.3-0.1,0.5-0.2,0.8c0.8,1.1,1.3,2.2,1.5,3.3c6.4,3.9,14.8,4.4,25.3,1.5l0.3-0.3 M192.8,117.7l-2.4-11.4l-0.2-0.8h-0.1l-2.5,8
			 M165.1,97.4l0-0.5l-0.3,0.3c0,0.2,0,0.3,0,0.5c0.1,4.4,0.8,8.9,1.9,13.5 M170.9,91.2l0.6,5.3l-1.4,1c0.1,0.8,0.2,1.5,0.3,2.2v0
			c0.2,1.2,0.4,2.4,0.7,3.4c0.2,0.6,0.3,1.2,0.5,1.8c2.3,0.1,3.7-0.7,4.3-2.3 M167.8,96.1l2.4,1.3l0,0 M164.8,97.3
			c-0.1-3.2,0.1-6.3,0.6-9.4 M173.6,93.8l0.3,5.1l0.4,0.7l-3.1,0.8 M174.1,94.4l-0.5-0.6l-1.8-2.4l0.8-4.4c-0.2-0.1-0.3-0.1-0.5-0.2
			 M172.6,87l0.7-4.3 M199.1,82.8l0.2,1.8 M200.8,82.6l0.1,0.5 M195.6,83.8l-3.4,1.8l-5.7-0.4l-1.4-2.6l-0.8,0.4 M182.9,79.7
			l-2.1,2.9 M185.1,82.6l2-1.3 M187.1,97.3l-0.6-4.1l-2.6-2.6 M194.6,91l-0.4,1.2l2.2,0.9l1.2-0.7l-1-0.8 M199.4,84.6l1,8.3
			l-1.1,0.6l-1.7-1 M198.9,95.9l-4.9,0.6l-3.6,1.2 M200.4,97.4l-1.2-1 M205.1,67.8v5.1l-2.7,4.8l0.3,1.8l5.3-3.2 M206.4,67.4
			c0,0,0,0.1,0,0.1c1.8,3.1,3,6.6,3.6,10.6c-0.8,0.6-1.6,1.2-2.3,1.7l2.3,4.5l0.1,0l8.1-1.4l7.9,7.4l5.2,11l-2.5,2.3 M229.1,104.2
			l2.9,10.6l3.1,4.6l14.9,21.6l0.5,0.7c9.1,2.2,12.8,7.7,10.9,16.6c0.1,1,0.1,1.9,0.1,2.8c0,0.1,0,0.2,0,0.3c0,0.1,0,0.2,0,0.2
			c0,7.1-2.8,11.2-8.3,12.4l-5.4-1.2l2.4,4.6l-7.2-3.7l-0.6-5.1 M243.8,167.2l-8.9,3.4l-0.5,0.2l-4.6-4.9l-2,2l2.7,4.4l0.1,0
			l3.9-1.5 M202.7,54.7L203,60 M206.1,80.7l0,3.9l0,5.9l-3,4.3l-0.2,2.3h0.8l0.4,5.2l3.2-3.3l0.1-4.2 M209.9,84.5l-0.4,6.7l2.6,5.4
			c0.8,2.9,0.4,4.9-1.1,5.9l0.6,0.7 M209.9,84.3l0.1,0.2 M206.1,80.7c0.5-0.2,0.9-0.5,1.4-0.8h0.1 M161.8,50.1l5.4,9.2
			c-4-10.2-4.6-17.3-1.6-21.3 M199.4,84.6c2.2,1.2,4.5,1.2,6.8,0 M200.8,82.6c1.9-0.4,3.6-1,5.3-1.9 M232.1,114.8l1.6,5.7
			 M211,102.5l-2.4-2.8l-3,5.3l-3.3,0.6l-0.5,0.1 M209.1,111.8l0.2,0c0,0,0.1,0.1,0.1,0.1c0,0,0.1,0.1,0.1,0.2l6.3,3.3l12.7-11.7
			 M209.6,112l-0.4-0.3l-7.6,1.3c-0.1,0.1-0.3,0.2-0.4,0.3c-4,2.9-6.5,5.3-7.5,7.3c-0.3,0.6-0.5,1.1-0.5,1.5
			c0.1,0.2,0.1,0.4,0.2,0.6c1,2.9,2.5,4.4,4.6,4.6c0.8,0.1,1.6,0,2.5-0.3c1.1-0.3,2.4-0.9,3.7-1.7l5.3-3.2
			C212.7,118.8,212.8,115.4,209.6,112z M209.1,111.8l-1.3-0.7l-8.1,1.5l-6.3,5.8 M209.3,131l-2.3,3.4l0,0.2l-4.1,10.1 M202.4,144.4
			l-2.1,2.2l-15.8,19l-1.3,1.9l-0.2-0.1l0.5,5.3c0.6,0.6,1.2,1.2,1.7,1.8l0,0c3.1,3.3,5.9,6.9,8.5,10.8l2.3,2.8c1.5,3,2.8,5.9,4,8.8
			l1,2.3c0.5,1.2,1,2.5,1.4,3.7l1.8,5.2 M209,124.6l-1.9,9l2.1-2.6l0.2-0.3l7.7-9.4 M209.4,130.8l2.7,2.7l5.8,5.8 M218.9,139.2
			l1.1-1.4l0.4-0.6 M207.1,133.6l-0.2,0.8 M218.9,139.2L218.9,139.2l-6.2,8.4l-5.9,7.9l0.7,0.6l0.2,0.1l4.3,3.2l1.1-0.9l11.8-9.8
			 M212.2,133.5c-0.8,3.3-0.9,6.4-0.5,9.2c0.2,1.5,0.7,3,1.3,4.4 M212.8,147.6l-0.1-0.2 M237.2,141.7l-9.9-3.3 M240.7,140.5
			c-0.7-3.1-1.9-5.7-3.7-7.9c-1.9-2.4-4.4-4.2-7.6-5.6 M224,139l6.3,2.9l4.3,0.7l0.3,6.4h0.1l2.6,0.5l0.1,3.7l2.1,4.2l5.2,1.3
			l0.1-0.1 M245.6,157.9l-0.3-4.8l5.4,6.9 M247.1,163l-2.4,3.3 M240.7,140.5c0,0.2,0.1,0.4,0.1,0.6l1.4-1.2 M240.7,140.5
			L240.7,140.5 M240.8,141.1l-1.1,0.6l2.2,1.6h0l12,8.8l2,8.7 M239.7,141.7l-0.9,0.5l-1.6-0.5 M227.3,138.1l-7.3-0.4 M225.5,120.4
			l-7.8,0.9 M193.1,100.6l3.9-0.9 M202.9,97l-0.6,3.7l-3,4.6l-8.9,1.1 M190.3,105.5L190.3,105.5 M193.1,118.7l-0.6,0.5 M171.6,104.8
			c0.3,0.9,0.6,1.7,1,2.4c0,0,0.1,0.1,0.1,0.1c0,0,0,0,0.1,0.1c2.2,0.8,3.5,0.2,3.9-1.8 M172.8,107.4
			C172.8,107.4,172.8,107.4,172.8,107.4c1.1,2,2.4,3,4.1,3.1 M166.4,113.1l-3.9-3.8c0-0.1-0.1-0.2-0.2-0.3c0,0,0-0.1,0-0.2l-3.7-0.8
			c1.2,0.4,2.4,1.1,3.7,1.8c0.1,0,0.1,0.1,0.2,0.1c0,0,0.1,0.1,0.1,0.1c0.3,0.3,0.6,0.6,0.9,0.8c1.1,1,2,2.1,2.6,3.1 M158.4,75.6
			c-1,12.2,0.3,23.3,4,33.1l0.9,0.2 M167.8,117.2c0.5,2.1,0,4.1-1.4,5.9c-2.8,2.1-6.1,2.7-9.9,1.5l-0.2,0.3l-3.7,6.8l1.4,15.1v0.2
			l0.1,1 M177.8,113.7l-0.5-0.3 M200.4,127.1l0.8,11l-11.9,16.6l-0.1,3.8l1.7-2.5l9.4-9.4 M197.9,127.3l-0.3,11.7l-10.4,15.3
			c0.4-0.1,0.8-0.1,1.2-0.2c0.3,0,0.6-0.1,0.9-0.1v0.7 M175.1,138.7l17.4,0.9l-30,13.8 M188.9,158.9l0.2,0.8l-4.6,5.9 M189.2,158.5
			c0,0-0.1,0.1-0.1,0.1l-0.2,0.3l0,0c-2.3,3.2-3.9,4.3-5,3.3l-3.4,4.7l2.5,0.6h0 M183.9,162.1l-1.3,0.9 M183.5,172.7v0.1l1.6,1.9
			l8.7,10.6c0.9,1.3,1.7,2.7,2.5,4.2c0,0,0.1,0.1,0.1,0.1c0,0,0,0.1,0,0.1c0,0,0.1,0.1,0.1,0.1c0.1,0.2,0.2,0.3,0.3,0.5
			c1.2,2.1,2.2,4.3,3.3,6.6 M183,167.4l-0.3,4.3l0.1,0.2c0.1,0.1,0.2,0.1,0.2,0.2c0.1,0.1,0.2,0.1,0.2,0.2c0.1,0.1,0.2,0.2,0.4,0.3
			 M238.7,206.8l-39.9-42.3l-3.9,2.7l6.9,13.2 M178.9,166.5l3.2-4.7l-1.2-1.4l0.8-3.1 M178.9,166.5c-2.4,0.1-4.8,0-7.1-0.1
			 M171.8,167.2l-0.2,9.5c2.5-0.2,5.1-0.4,7.8-0.8c0.9-0.2,1.8-0.3,2.8-0.4c0.9-0.2,1.8-0.4,2.9-0.8 M171.8,166.4L171.8,166.4
			c-3.7-0.2-7.3-0.6-10.8-1.3l-4.4,11.1l-1.3,3.3l3.1-0.6l1.1-2.3l2.8-6.4l6.9,0.2l-0.8,6.5l-1.7,5l1.4-0.1l3.4-0.2l0.1-4.9
			 M180.5,166.9l-1.6-0.4 M146.9,197.7l10.5-2.6v-6l5-5.3l0.1-7.1h0c-0.4,0-0.9-0.1-1.3-0.1l-1.7,5.8l-5.1,5.4l0.6,4.8l-9.5,2.9
			C146,196.3,146.4,197,146.9,197.7c0.6,0.9,1.2,1.9,1.8,2.8l0.8,1.4l7-0.9h0.1l1.6,3.2c0.8-0.8,1.4-1.7,1.9-2.4
			c0.9-1.5,1.7-3.1,2.4-4.9c0.2-0.5,0.3-0.9,0.5-1.4c0.1-0.2,0.1-0.4,0.2-0.6c1.1-3.3,1.7-6.9,2.1-10.9c0.1-1,0.1-2,0.2-3
			c0-1.2,0-2.6,0-4c0,0,0-0.1,0-0.1h0c-1,0-2,0-3-0.1 M168.4,176.9c-1,0-1.9,0-2.9,0 M182.6,162.4l-0.5-0.6 M180.9,160.4
			c1.1-3.4,3.2-5.4,6.3-6.1 M182.1,175.5l7.6,18.3l-5.9,10.8l-0.1,0.2l-24.7,1.1l15.8,31.2l2.5,5.3l8.5,7l9.7-8
			c0.3-0.6,0.6-1.3,0.7-1.9c0.1-0.7,0.2-1.4,0.1-2.2c-0.4-4.6-4.5-10.4-12.3-17.6 M168.1,181.8l-5,21.6l6.3-1.1l10.2,0.9l7.2-10.2
			l-7.4-17.1 M229.8,165.9l5.3-5.3 M221.5,168.7l1.6,1.6l4.6-2.3l0,0 M234.9,170.6l7.4-8.8 M207.8,156.2l-0.3,4.1l3.3,2.7l3.5,6.1
			l7.2-0.4l-1.8-1.7l-0.7-0.1 M213.1,158.4l1,5.2l5.7,1.8 M229.1,154.6l-9.4,12.4 M202.3,105.6l1.8-3.4 M250.6,141.6
			c-0.4-0.1-0.7-0.2-1.1-0.3l-7.1-1.5 M288.5,214c-16.1-2.8-29.8-8.3-41.2-16.4c-1.6-1.2-3.2-2.4-4.7-3.7 M128.5,161.5l1.1-0.6
			c-2.1-6.7-3.6-13.6-4.7-20.6c-0.3-2.3-0.6-4.7-0.9-7l-3.8-32.3v0l-0.3-2.8V82.6l2.5-7.8l0.2-0.6l-0.9,0.3h-3.9l-3.9,13.8l2,12.5
			c0.2,0.2,0.4,0.4,0.4,0.7v0c0.1,1.4,0.2,2.9,0.3,4.3c0.9,12.9,2.2,24.7,3.8,35.2c0,0,0,0.1,0,0.1v0c3.2,21.4,7.8,37.7,13.7,48.9
			c0,0.1,0,0.1,0.1,0.1c0,0.1,0.1,0.1,0.1,0.2 M134.3,190.4c0.1,0.4,0.2,0.8,0.3,1.1c4.4,19.7,12.7,38.1,24.9,55.1 M158.6,73.3
			l0.8-0.3 M158.4,75.6c0-0.1,0-0.2,0-0.3c0-0.4,0.1-0.8,0.1-1.3c0-0.2,0-0.5,0.1-0.8l-8.4,0l-12.8-4.2l-14.9,5.1 M145.1,89.8
			l-0.6-1.1l-3.3-15.4l-18.8,1.5 M161.9,79.5l-2.9-2.9c1.5,2.3,3.3,4.1,5.2,5.4 M159,76.6c-0.2-0.3-0.4-0.6-0.6-1 M145.1,89.8
			l9.8,17.3l0.1,0l3.8,0.9 M149.7,109.6L149.7,109.6c1.3-1.7,3.1-2.5,5.3-2.5 M154.1,123.9c-4.4-1.1-6.2-3.9-5.5-8.5
			c0.2-1.5,0.7-3.3,1.6-5.2 M138.1,156.8l-0.2-0.8v0l-2.7-9.5l4.7-6.9l-4.1-12.9 M156.5,124.6c-0.6-0.2-1.2-0.4-1.8-0.6
			c-0.1,0-0.2-0.1-0.3-0.1c-0.1,0-0.2,0-0.3-0.1l-4.5,7.6 M152.6,147.2l-3-14.8 M149.9,159.1c-1.7-0.5-3.1-1.4-4-2.8
			c-0.2-0.2-0.3-0.5-0.5-0.8c-0.3-0.5-0.5-1-0.7-1.6c-0.2-0.6-0.4-1.3-0.5-1.9c0.2-0.7,0.5-1.3,0.8-1.8c0.8-1.5,1.7-2.2,2.8-2
			c0.2,0,0.4,0.1,0.6,0.1c1.7-0.1,3.2,0.2,4.3,0.9l0.5-1.8 M145.4,124.3l-0.8,20.8l-4.9,11.9 M116.3,101.5l-0.4-0.7 M102.5,144.1
			L102.5,144.1l-2.1,19.8l-9,13.5l-2.7,18 M88.4,195.7l-7.2,8.3 M82.1,204.7c-3.5,5.2-5,10.6-4.5,16.2l0.6-0.9 M102.2,144L102.2,144
			l6.9-37.8l4.8-17.9 M153.3,149.7c0.8,0.7,1.4,1.7,1.7,3c0.1,0.3,0.1,0.7,0.2,1c0.5,2.2-0.5,4.1-2.9,5.6c-0.2,0-0.4,0-0.6,0
			l-0.6,3.3c0.1,0,0.2,0.1,0.3,0.1c1.1,0.4,2.2,0.7,3.3,1l0.2-0.8 M152.6,149.2c0.3,0.2,0.5,0.3,0.7,0.5l0.2-1.1 M151.8,159.4
			c-0.7-0.1-1.3-0.2-1.9-0.3l-0.6,2.1 M151.2,162.6c-0.7-0.2-1.4-0.5-2.1-0.8h0c-3.3-1.2-6.5-2.6-9.6-4.3h0l0,0
			c-0.4-0.2-0.8-0.4-1.2-0.6l-0.1-0.2l-4.9,2.4l-3.3,2.7c0.8,2.4,1.6,4.9,2.5,7.3c6.1,2.8,12.3,4.9,18.7,6.2
			c-2.2-4.1-1.6-7.6,1.8-10.3c0.5-0.4,1.2-0.9,1.9-1.3c2,0.6,4.1,1,6.3,1.4 M138.3,156.8l-0.1,0.1 M133.3,159.2l3.4-2.8
			 M128.9,162.7l1.1-0.8c-0.1-0.3-0.2-0.6-0.3-0.9l3.6-1.8 M134.3,190.4C134.3,190.4,134.3,190.4,134.3,190.4 M158,179.8l0.4-0.9
			l1.1-0.3 M161.2,176.7c-0.6-0.1-1.2-0.1-1.8-0.1 M150.2,178.3l0.9-2.9c1.8,0.4,3.6,0.7,5.5,0.9 M132.4,169.1
			c2.3,6.1,5,12,8.1,17.9c1.5,2.9,3.2,5.7,4.9,8.5c0,0,0,0.1,0,0.1 M144.8,90l-6.5,66.5 M120.2,233.5l9-10.8l4.5-0.3 M158.3,204.3
			l0.9,1.6 M105.4,279c-6.8-2.5-12.6-7.2-17.3-14.3l-3.3,3.6l-9.5,26.5l-6.4,4.1l0.3,8.7c-4.7,21-3.5,32.8,3.6,35.4l10.8,1.5
			l5.6-12.8l-2.1-17.4l5.3-8l-0.5-9.1L105.4,279c2.5,0.9,5.2,1.5,8.1,1.8l6.2-6.1 M127.4,271.3l0.3,0.3c6.9,2.6,12.8,5.5,17.6,8.6
			c4.8,3.1,8.5,6.5,11.2,10.1l-0.1,0.7 M155.5,300.1c1.8-2.7,3.3-5.5,4.5-8.5c0,0,0-0.1,0.1-0.1c5.1-12.4,5.2-27.4,0.3-44.8
			 M119.6,274.6l1.7-0.6l6.5-2.4 M121.3,274l0.4,4.5c-0.2,1.7-0.2,3.3-0.3,4.8c0,0,0,0.1,0,0.1c0,0.1,0,0.2,0,0.3
			c0,7.6,1.8,14.1,5.4,19.4l8.9,4l0.1,0l5.4-7.3c-5.1-5.3-6.7-10.9-4.9-16.7c-2.6,0.4-5.2,0.4-8,0.2 M88.1,264.7
			C88.1,264.7,88.1,264.6,88.1,264.7c-4.2-6.3-7.5-14.3-9.9-24 M78.8,240.4c-2-4.5-3.1-10-3.4-16.6c0-0.1,0-0.2,0-0.3l2.1-2.7
			c0.1,0.9,0.2,1.8,0.3,2.7c0.6,3.1,1.8,6.2,3.6,9.3 M145.3,280.1c-2.8,1.5-5.8,2.4-8.9,2.9c0,0-0.1,0-0.1,0 M132.2,226.6
			c-0.1,15.4-4,27.6-11.7,36.6 M78.8,240.4C78.9,240.5,78.9,240.5,78.8,240.4c0.9,2.1,2,4,3.3,5.7 M185.7,280.2
			c-6.5,10.7-16,18.6-28.4,23.9c-0.1,0-0.2,0.1-0.3,0.1c-2.2,0.9-4.4,1.7-6.8,2.5c1.4-1.5,2.7-3,3.9-4.6c0.4-0.6,0.8-1.1,1.2-1.7
			l0,0l0.2-0.2c0,0,0,0,0,0 M155,299.8l1.4-8.9 M81.3,203.9l-0.7,0.8 M326.3,208.6c-1.9,0.1-3.9-0.2-6.1-0.7c-0.6-0.1-1.3-0.3-2-0.5
			 M195.6,241.4l6.6-5.2l0.3,0.3l9,8.7c0.1,0,0.2,0,0.3,0.1c0.5,0.1,0.9,0.1,1.3,0.1c0.1,0,0.3,0,0.4,0c0.2,0,0.3,0,0.5,0
			c0.3,0,0.7-0.1,1-0.2c0.3-0.1,0.6-0.2,0.8-0.4c2.2-1.1,3.5-3.9,4.1-8.3 M212.8,239.4l0.4,0.7 M168.8,236.8l0.6,1.2l9.8,26.3
			l6.4,6.7h0.9c-0.3-0.3-0.6-0.7-0.9-1c-1.3-1.6-2.5-3.2-3.5-4.8c-0.1-0.1-0.1-0.2-0.2-0.3c0-0.1-0.1-0.1-0.1-0.2
			c-0.9-1.4-1.7-2.9-2.3-4.3c-0.1-0.2-0.2-0.4-0.3-0.6c-1.3-2.9-2.1-5.8-2.3-8.6 M174.9,237.1l-6.1-0.3l-19.3-34.9 M202.4,236.5
			c-0.3,1.1-0.6,2.2-0.8,3.3c-0.9,6.8,2.2,12.6,9.5,17.4 M194.6,269.7c-1.8-1.2-3.3-2.4-4.7-3.7c-1.3-1.2-2.4-2.5-3.4-3.9
			c-0.9-1.4-1.7-2.8-2.3-4.2c-1.2-2.9-1.6-6-1.3-9.4 M186.6,271h3.3h4.4 M185.8,279.4c0.1,0.3,0.1,0.6-0.1,0.8l0,0 M179.2,264.3
			l5.8,15.4 M198.5,215.2l10.3,17.4 M241.7,194.2l17.1,13.2 M108.2,137.2L95,207.4 M116,175.6l-5.4,76.5 M181.7,135.7l-21,7.2
			 M146.9,197.7l-1.8,0.4"/>
	</g>
</g>
<g transform="matrix( 1, 0, 0, 1, 98.8,11.05) ">
	<g>
		<g id="Layer0_2_MEMBER_0_FILL">
			<path fill="#333132" d="M96.8,158.4l-1.6-6.7c-3,2.2-6.5,4.1-10.3,5.6c0.3,0.3,0.6,0.7,1,1l3.8,2.2L96.8,158.4 M75.4,138.9
				l-3.1-5.6l-6.3,18.5l-8.1,4.5l1.8,1.2L44.3,166l0.4,3.4l5.6-4.3l-5.6,4.3l-2.7,2.1l1.7,1.6l7.5-4.8l-7.5,4.8l0.1,0.1l-0.3,0.3
				l-2.1,2.8l2,1.3l0.1,3.3l9.9-8l-9.9,8v0.2l2.7,1.3l3.2,3.9l1.6-6.2l8.4,1.8l-0.4,7.5l8.6-2.9l0.1-0.1l1.5-13.8l5.3-1.2l0.7-4.3
				l5.3-2.3l0.1-0.6c-4.8-0.3-10.2-1.2-16.3-2.6c6,1.4,11.4,2.3,16.3,2.6l0,0c0.1,0,0.2,0,0.3,0.1c0,0,0.1,0,0.1,0
				c1.4,0.1,2.7,0.1,3.9,0.1c1.9,0,3.8-0.2,5.5-0.4c1.2-0.2,2.3-0.5,3.4-0.8l-4.2-2.6l-3.8-2.2c-0.4-0.3-0.7-0.6-1-1
				c-3.5-3.5-6.2-8-8-13.4c-0.1-0.2-0.1-0.4-0.2-0.6c-0.4-1.3-0.8-2.7-1.2-4.2C75.4,139.1,75.4,139,75.4,138.9 M75.4,138.9
				c1.5-3.1,3.2-5.8,5-8.2l-8.4,2.1l0.3,0.5L75.4,138.9z"/>
			<path fill="#67B4EC" d="M153.5,92.2l-9.8-3l-0.4-0.1c-7-0.2-13.3,2.9-18.9,9.3c-1.8,2-3.5,4.4-5.1,7.2c1.6-2.7,3.3-5.1,5.1-7.2
				c-10.6,3.4-19.6,9.1-27.2,16.8c0.5-0.1,1.1-0.1,1.7-0.1c-0.6,0-1.1,0-1.7,0.1c-0.3,0.3-0.6,0.6-0.9,0.9c0.3-0.3,0.6-0.7,0.9-0.9
				c-4.8,0.6-8.4,3.8-10.8,9.4c0.9-0.7,1.9-1.3,2.8-1.9c1.6-0.9,3.3-1.7,5.1-2.3c-1.8,0.6-3.4,1.3-5.1,2.3c-1,0.6-1.9,1.2-2.8,1.9
				c-0.1,0.1-0.3,0.2-0.4,0.3c-2,1.6-3.9,3.6-5.7,5.8c-1.8,2.4-3.5,5.1-5,8.2c0,0.1,0,0.2,0,0.3c0.3,1.5,0.7,2.9,1.2,4.2
				c0.1,0.2,0.1,0.4,0.2,0.6c1.8,5.4,4.5,9.9,8,13.4c3.9-1.6,7.3-3.5,10.3-5.6c6.4-4.5,11-10.4,13.8-17.4l-1,0.3l1-0.3l4.7-1.2
				c2.8,1.4,7.1,1.2,12.8-0.6l13.5-9.1l0.5-0.3c-3.3-5.7-8.7-8.1-16.1-7c7.4-1.1,12.8,1.2,16.1,7l0.3-0.3l0.4,0.5
				c4.2,2,7.1,1.7,8.7-0.8c6.7-3.3,10.4-8.5,11.1-15.8C161.7,101.6,159.3,96.7,153.5,92.2 M99.9,136.9l-4.4,2.2l-7.8-1l-4.8,3.6
				l4.8-3.6l7.8,1L99.9,136.9 M106.8,124c-0.3,0.2-0.7,0.4-1,0.7c-2.9,1.8-4.8,3.9-5.7,6.3c0.8-2.4,2.7-4.5,5.7-6.3l-12.1,4.9
				l12.1-4.9C106.1,124.4,106.4,124.2,106.8,124c2.2-1.2,4.9-2.3,8.1-3.3C111.6,121.7,108.9,122.8,106.8,124z"/>
		</g>
	</g>
	<g>
		<path id="Layer0_2_MEMBER_0_1_STROKES" fill="none" stroke="#000000" stroke-linecap="round" stroke-linejoin="round" d="
			M143.8,89.2l9.8,3c5.8,4.5,8.2,9.4,7.4,14.7c-0.7,7.2-4.4,12.5-11.1,15.8c-1.6,2.5-4.5,2.7-8.7,0.8l-1.2,0.1l-13.5,9.1
			c-5.7,1.8-9.9,2-12.8,0.6l-4.7,1.2c-2.8,7.1-7.4,12.9-13.8,17.5l1.6,6.7l-7.1,2.1l4.2,2.6l0.7,0.5 M143.3,89.1
			c-7-0.2-13.3,2.9-18.9,9.3c-1.8,2-3.5,4.4-5.1,7.2 M80.5,130.8c-1.8,2.4-3.5,5.1-5.1,8.2c0,0.1,0,0.2,0.1,0.3
			c0.3,1.5,0.7,2.9,1.2,4.2c0.1,0.2,0.1,0.4,0.2,0.5c1.8,5.4,4.5,9.9,8,13.4c3.9-1.6,7.3-3.5,10.3-5.6 M72.3,133.4l3.1,5.6
			 M80.5,130.8l-8.4,2.1l0.3,0.5l-6.3,18.5l-8.1,4.5l1.8,1.2L44.3,166l0.4,3.5l5.6-4.4 M80.6,164.8l-5.3,2.3l-0.7,4.3l-5.3,1.2
			l-1.5,13.8l-0.1,0.1l-8.6,2.9l0.4-7.5l-8.4-1.8l-1.6,6.2l-3.2-3.9l-2.7-1.3v-0.2l-0.1,0.1l-0.4,0.4 M80.7,164.3
			c-4.8-0.3-10.2-1.2-16.3-2.6 M93.8,163.1c-1.1,0.3-2.2,0.6-3.4,0.8c-1.7,0.3-3.6,0.4-5.5,0.4c-1.3,0-2.6,0-4-0.1c0,0-0.1,0-0.1,0
			c-0.1,0-0.2,0-0.2,0h0 M51.2,168.4l-7.5,4.8l0.1,0.1l-0.2,0.3l-2.1,2.8l2,1.3l0.1,3.3l9.9-8 M43.8,173.1l-1.7-1.6l2.7-2.1
			 M43.8,173.1l-0.1,0.4 M140.7,122.9l-0.3,0.2l0.7,0.3 M139.9,123.5l0.5-0.3c-3.3-5.7-8.7-8.1-16.1-7 M94.4,120.6
			c-1.8,0.6-3.4,1.3-5,2.3c-1,0.6-1.9,1.2-2.9,1.9c-0.1,0.1-0.2,0.2-0.4,0.3c-2,1.6-3.9,3.5-5.7,5.8 M98.9,115.2
			c-0.6,0-1.1,0-1.7,0.1c-0.3,0.3-0.6,0.6-0.9,0.9 M99.9,136.9l-4.4,2.2l-7.8-1l-4.8,3.6 M107.9,134.6l1-0.3 M114.8,120.7
			c-3.2,1-5.9,2.1-8,3.3c-0.4,0.2-0.7,0.4-1,0.6c-2.9,1.8-4.8,4-5.7,6.4 M105.8,124.7l-12.1,4.9 M97.3,115.3
			c-4.8,0.6-8.4,3.8-10.8,9.4 M84.8,157.4c0.3,0.3,0.6,0.7,1,1l3.8,2.2 M124.4,98.4c-10.6,3.4-19.6,9.1-27.2,16.8"/>
	</g>
</g>
<g transform="matrix( 1, 0, 0, 1, 98.8,11.05) ">
	<g>
		<g id="Layer0_3_MEMBER_0_FILL">
			<path fill="#7FA3C5" d="M162.6,109.9c-0.1,0-0.1-0.1-0.2-0.2c-1.3-0.8-2.5-1.4-3.7-1.8l-3.8-0.8c-2.1,0-3.9,0.8-5.3,2.4v0.1
				l0.6,0.6c-0.8,1.9-1.3,3.6-1.6,5.2c-0.7,4.6,1.1,7.4,5.5,8.5c0.1,0,0.2,0.1,0.3,0.1c0.1,0,0.1,0,0.3,0.1c0.6,0.2,1.2,0.4,1.8,0.6
				c3.8,1.1,7.1,0.6,9.9-1.5c1.4-1.9,1.9-3.9,1.4-5.9c-0.3-1.1-0.8-2.2-1.6-3.3c-0.7-1-1.6-2-2.6-3
				C163.3,110.5,163,110.3,162.6,109.9C162.7,110,162.6,109.9,162.6,109.9z"/>
		</g>
	</g>
	<g>
		<path id="Layer0_3_MEMBER_0_1_STROKES" fill="none" stroke="#000000" stroke-linecap="round" stroke-linejoin="round" d="
			M149.7,109.6L149.7,109.6c1.3-1.7,3.1-2.5,5.3-2.5l3.8,0.9c1.2,0.4,2.4,1.1,3.7,1.8c0.1,0,0.1,0.1,0.2,0.1c0,0,0.1,0.1,0.1,0.1
			c0.3,0.3,0.6,0.6,0.9,0.8c1.1,1,2,2.1,2.6,3.1c0.8,1.1,1.3,2.2,1.5,3.3c0.5,2.1,0,4.1-1.4,5.9c-2.8,2.1-6.1,2.7-9.9,1.5
			c-0.6-0.2-1.2-0.4-1.8-0.6c-0.1,0-0.2-0.1-0.3-0.1c-0.1,0-0.2,0-0.3-0.1c-4.4-1.1-6.2-3.9-5.5-8.5c0.2-1.5,0.7-3.3,1.6-5.2"/>
	</g>
</g>
</svg>
